<svg width="270" height="268" viewBox="0 0 270 268" fill="none" xmlns="http://www.w3.org/2000/svg">
<path fill-rule="evenodd" clip-rule="evenodd" d="M34.3198 1.96702C23.6648 6.80702 17.7928 15.889 17.1168 28.577C16.3678 42.637 22.2978 53.282 34.0118 58.904L40.0388 61.797L35.7638 62.48C23.2008 64.489 10.3138 74.783 4.1198 87.755L0.384803 95.577L0.0848042 124.577C-0.148196 147.188 0.0718042 153.959 1.0848 155.309C2.0078 156.539 4.4888 157.234 9.6348 157.703L16.8848 158.364L16.8998 178.971C16.9088 190.304 17.2948 200.176 17.7588 200.907C18.2378 201.663 19.8508 202.095 21.4938 201.907L24.3848 201.577L24.8848 167.266L25.3848 132.955L43.4568 152.266C53.3968 162.887 65.8978 176.336 71.2378 182.151C76.5788 187.967 83.3978 194.267 86.3928 196.151L91.8388 199.577L92.1118 231.968C92.3608 261.554 92.5368 264.455 94.1348 265.463C95.4108 266.268 96.3588 266.268 97.6348 265.463C99.2328 264.456 99.4078 261.572 99.6488 232.231L99.9128 200.102L136.149 199.839L172.385 199.577V196.077V192.577L133.385 192.077C95.1528 191.587 94.3138 191.533 90.7798 189.335C88.7968 188.102 75.6868 174.827 61.6458 159.835C47.6048 144.843 33.1398 129.765 29.5008 126.328C25.8618 122.891 22.8848 119.482 22.8848 118.752C22.8848 118.023 23.9268 116.447 25.1988 115.251C27.5018 113.088 27.7398 113.077 70.5498 113.077C98.2168 113.077 114.67 113.455 116.62 114.134C118.53 114.8 130.477 126.289 148.909 145.187C174.138 171.053 178.526 175.141 180.776 174.88C182.752 174.65 183.459 173.939 183.69 171.947C183.95 169.701 180.406 165.664 159.371 144.244L134.747 119.17L136.418 115.648C139.386 109.395 145.632 103.327 152.667 99.864C158.798 96.845 160.12 96.577 168.864 96.578C177.364 96.579 178.993 96.887 184.054 99.451C187.172 101.03 191.985 104.572 194.749 107.322C198.95 111.5 200.195 112.216 202.33 111.68C204.328 111.179 204.885 110.413 204.885 108.166C204.885 102.351 188.942 90.486 178.501 88.531L174.617 87.804L179.65 85.412C198.683 76.366 202.67 49.762 187.221 34.882C170.791 19.055 144.053 28.833 140.935 51.808C140.032 58.461 141.296 67.003 143.955 72.215C146.765 77.723 153.169 83.638 158.544 85.691L163.086 87.425L158 88.727C146.662 91.629 136.749 98.805 131.686 107.776L128.624 113.201L126.005 110.753C120.718 105.813 117.881 105.077 104.135 105.077H91.2848L90.0008 98.827C86.4328 81.469 71.2308 65.476 55.5008 62.531L51.6168 61.804L56.7088 59.384C63.2558 56.272 70.2488 48.509 72.4358 41.924C76.1338 30.79 72.7868 16.133 64.7008 8.04702C57.1548 0.501023 43.5448 -2.22298 34.3198 1.96702ZM52.4408 9.96302C60.0688 13.428 65.8938 22.629 65.8788 31.193C65.8648 40.244 60.3358 48.594 52.3328 51.65C31.5538 59.585 15.3688 30.57 31.5408 14.375C37.7878 8.11802 45.0188 6.59202 52.4408 9.96302ZM175.457 37.186C178.924 38.234 183.905 43.074 186.187 47.612C191.659 58.49 187.097 72.351 176.456 77.184C163.309 83.155 148.929 72.651 148.929 57.077C148.929 53.891 149.695 49.89 150.75 47.568C152.899 42.838 158.8 37.353 162.653 36.504C164.156 36.173 165.835 35.763 166.385 35.593C167.539 35.237 171.052 35.854 175.457 37.186ZM61.1018 73.455C71.6588 78.507 80.3918 89.916 82.4358 101.327L83.1078 105.077L54.2458 105.081C27.0618 105.084 25.1928 105.202 22.0748 107.103C16.8158 110.309 14.8898 117.165 16.8848 125.577C17.0148 126.127 17.0688 131.864 17.0028 138.327L16.8848 150.077H12.3248H7.7658L8.0748 123.327C8.3728 97.595 8.47381 96.398 10.7288 91.861C15.4988 82.265 24.1518 74.738 34.1708 71.47C41.1468 69.195 54.2108 70.158 61.1018 73.455ZM218.885 108.01C209.271 110.058 202.317 115.727 198.054 124.991C194.857 131.939 194.523 141.953 197.227 149.797C199.372 156.022 206.285 164.076 211.841 166.825L215.802 168.785L211.594 170.028C196.47 174.492 185.268 185.825 181.437 200.537C179.428 208.253 179.128 263.92 181.085 265.877C182.586 267.378 265.53 267.588 267.885 266.097C269.162 265.289 269.385 260.86 269.385 236.362C269.385 208.977 269.274 207.255 267.101 200.968C261.889 185.894 250.983 174.732 237.227 170.396L232.026 168.756L235.833 166.873C241.377 164.13 246.795 158.358 249.723 152.077C252.915 145.23 253.247 135.202 250.543 127.357C246.092 114.443 231.254 105.376 218.885 108.01ZM231.426 117.957C239.215 121.494 243.899 129.343 243.863 138.795C243.826 148.43 238.973 156.055 230.667 159.524C223.851 162.371 216.403 160.801 210.509 155.274C206.083 151.124 203.931 145.51 203.916 138.077C203.899 128.936 207.671 122.359 215.038 118.688C221.182 115.626 225.838 115.418 231.426 117.957ZM239.121 180.325C249.859 185.246 258.081 196.089 260.77 208.876C261.399 211.867 261.885 223.957 261.885 236.626V259.077H224.827H187.769L188.077 231.327C188.382 203.831 188.409 203.526 190.986 198.031C195.576 188.246 202.84 181.841 213.171 178.469C219.898 176.274 232.2 177.154 239.121 180.325Z" fill="black"/>
</svg>
