<svg width="342" height="300" viewBox="0 0 342 300" fill="none" xmlns="http://www.w3.org/2000/svg">
<path fill-rule="evenodd" clip-rule="evenodd" d="M68.2171 1.8872C63.7981 3.6382 60.2931 6.7752 45.2171 22.4742C35.4351 32.6602 27.2811 41.6562 27.0981 42.4652C26.6491 44.4532 28.765 46.8402 30.977 46.8402C32.015 46.8402 39.221 39.9512 47.974 30.5902C56.332 21.6532 64.9681 13.1132 67.1661 11.6142C75.2161 6.1212 81.3631 6.5262 100.444 13.8092C114.126 19.0302 114.175 19.0402 116.15 17.0652C119.69 13.5262 117.313 11.6842 101.747 5.90319C84.476 -0.510805 76.6401 -1.4498 68.2171 1.8872ZM199.205 26.9332C196.881 28.0842 194.103 30.4462 193.032 32.1822C191.961 33.9192 189.173 43.5262 186.836 53.5312C183.303 68.6572 182.806 71.9842 183.882 73.2812C185.386 75.0942 188.504 75.3392 189.503 73.7232C189.883 73.1092 191.911 65.1912 194.009 56.1282C196.108 47.0652 198.489 38.6372 199.301 37.3982C202.371 32.7132 205.713 32.3822 216.573 35.6902C221.995 37.3422 249.381 45.3052 277.431 53.3852C305.481 61.4652 329.265 68.8102 330.283 69.7062C332.722 71.8512 334.931 76.2092 334.931 78.8762C334.931 80.0502 327.756 109.66 318.987 144.675C291.849 253.042 283.958 283.921 282.896 285.906C281.597 288.332 276.802 290.84 273.46 290.84C271.145 290.84 165.79 261.145 154.471 257.302C149.11 255.482 146.931 256.41 146.931 260.513C146.931 262.366 147.803 263.307 150.612 264.48C158.548 267.796 272.348 299.779 274.583 299.321C275.874 299.056 278.021 298.615 279.354 298.34C282.497 297.692 287.609 293.364 289.46 289.784C291.935 284.999 341.931 84.6112 341.931 79.4782C341.931 69.5942 336.314 62.1032 326.508 58.9082C323.166 57.8192 300.631 51.2442 276.431 44.2972C252.231 37.3492 227.342 30.1292 221.123 28.2522C207.95 24.2772 204.937 24.0962 199.205 26.9332ZM84.428 51.7452C63.527 58.3112 43.861 64.6432 40.727 65.8152C34.593 68.1102 25.7931 75.2722 23.3851 79.9282C22.5811 81.4842 18.297 95.4882 13.865 111.048C9.43305 126.609 4.44105 143.615 2.77305 148.84C-1.05095 160.814 -0.921948 170.353 3.17205 178.369C5.42405 182.777 25.149 208.366 54.291 244.683C65.863 259.105 69.3931 261.383 79.9311 261.234C86.7821 261.136 91.047 259.914 129.233 247.103C175.651 231.531 177.105 230.804 183.123 220.152C184.722 217.322 189.632 203.156 194.033 188.673C198.435 174.19 203.813 156.847 205.984 150.133C208.155 143.419 209.931 136.188 209.931 134.064C209.931 127.277 207.244 120.654 201.711 113.801C198.807 110.205 187.258 95.8052 176.046 81.8012C164.835 67.7972 153.36 53.9412 150.546 51.0092C143.729 43.9042 137.229 40.6462 128.931 40.1762C122.917 39.8342 119.591 40.6992 84.428 51.7452ZM135.356 48.9412C137.951 49.6612 141.174 51.9482 144.864 55.6852C150.821 61.7212 197.837 119.935 199.995 123.949C201.927 127.541 202.753 133.382 201.924 137.59C200.678 143.915 179.954 210.072 177.829 214.509C176.73 216.801 173.895 220.462 171.529 222.643C167.515 226.343 164.519 227.498 126.829 239.876C104.61 247.174 84.1811 253.33 81.4311 253.557C72.7831 254.272 69.268 251.638 54.931 233.701C8.18405 175.216 8.38905 175.506 7.28205 166.156C6.79105 162.011 7.35205 158.804 10.2501 149.192C12.2151 142.674 16.567 127.665 19.922 115.84C29.032 83.7262 29.506 82.4572 33.861 78.5222C38.589 74.2512 40.7801 73.4342 85.2811 59.3602C122.702 47.5252 127.02 46.6272 135.356 48.9412ZM117.396 59.7922C112.411 61.8122 110.822 67.6832 113.914 72.6502C118.916 80.6852 133.618 80.8392 136.91 72.8912C138.045 70.1502 138.004 69.2162 136.616 66.3062C133.842 60.4892 123.949 57.1352 117.396 59.7922ZM41.181 82.5022C38.647 83.5252 40.001 88.0832 44.644 94.1662C57.63 111.18 85.8501 146.848 89.2851 150.59C93.7041 155.405 96.4611 155.966 98.0931 152.384C99.1051 150.163 98.7441 149.414 94.3211 144.557C91.6321 141.603 79.9811 127.102 68.4311 112.333C42.7551 79.5002 44.335 81.2302 41.181 82.5022ZM113.952 90.9562C109.892 92.5762 107.931 94.9592 107.931 98.2722C107.931 104.738 113.487 108.84 122.245 108.84C126.76 108.84 128.096 108.403 130.295 106.204C131.745 104.754 132.931 102.461 132.931 101.108C132.931 97.4432 129.474 93.2742 124.924 91.4542C120.386 89.6382 117.574 89.5112 113.952 90.9562ZM238.788 96.1782C232.358 98.5652 228.518 101.337 224.771 106.293C219.122 113.768 216.076 127.055 219.383 129.8C222.523 132.406 224.261 130.626 225.587 123.441C227.976 110.493 235.127 103.677 247.027 103.004C258.344 102.365 265.336 106.999 270.717 118.705C272.789 123.214 273.107 125.13 272.707 130.705C271.893 142.044 267.771 148.012 251.848 160.908C246.532 165.212 240.835 170.446 239.187 172.537C234.486 178.507 230.807 186.638 230.216 192.369C229.725 197.127 229.879 197.689 231.85 198.314C234.711 199.222 236.55 197.573 237.209 193.512C238.705 184.298 244.715 176.601 260.39 163.826C274.561 152.278 279.931 142.801 279.931 129.34C279.931 119.558 277.249 112.444 270.974 105.577C264.458 98.4482 258.337 95.4742 249.431 95.1112C245.299 94.9432 240.938 95.3802 238.788 96.1782ZM31.8911 109.88C23.7151 118.056 29.615 136.893 39.57 134.395C47.27 132.462 48.1611 114.616 40.8141 109.471C37.6671 107.267 34.3521 107.419 31.8911 109.88ZM104.105 122.154C102.711 123.638 101.931 125.75 101.931 128.038C101.931 136.977 118.34 143.591 124.249 137.033C130.37 130.24 122.578 119.852 111.355 119.844C107.34 119.841 105.825 120.323 104.105 122.154ZM153.931 141.922C134.956 148.458 117.419 154.563 114.959 155.49C109.311 157.618 102.034 164.374 98.7201 170.566C97.3151 173.192 92.533 187.04 88.094 201.34C76.163 239.778 75.749 241.789 79.469 243.216C81.958 244.171 83.782 242.81 84.437 239.506C85.96 231.831 102.404 179.809 104.878 174.84C109.442 165.672 111.316 164.734 153.813 150.351C185.693 139.562 192.364 136.984 193.208 135.131C194.389 132.539 192.713 129.777 190.059 129.94C189.163 129.995 172.906 135.387 153.931 141.922ZM21.6551 152.09C19.2901 153.872 16.9281 160.129 16.9471 164.558C16.9691 169.463 20.7121 176.039 24.1771 177.257C27.5851 178.456 31.527 176.522 33.516 172.675C35.137 169.54 35.3871 161.17 33.9711 157.445C31.7671 151.647 25.7271 149.021 21.6551 152.09ZM69.1601 153.509C66.8771 154.428 64.9311 159.637 64.9311 164.83C64.9311 177.601 75.429 184.632 80.958 175.563C87.079 165.525 78.6161 149.705 69.1601 153.509ZM139.431 186.711C130.744 192.106 127.206 201.931 132.245 206.666C135.09 209.338 137.888 209.413 142.721 206.946C147.347 204.585 149.408 202.336 151.474 197.392C155.514 187.723 148.219 181.253 139.431 186.711ZM56.587 195.973C51.8 198.755 50.5171 209.786 54.2201 216.324C58.3611 223.635 65.7071 223.75 68.9741 216.555C71.1911 211.67 71.324 209.795 69.831 204.419C67.791 197.07 61.548 193.089 56.587 195.973ZM215.315 211.282C213.955 214.825 215.518 216.317 223.94 219.515C234.047 223.353 236.475 223.561 237.996 220.718C239.647 217.633 237.047 215.601 227.428 212.456C218.28 209.466 216.093 209.254 215.315 211.282ZM0.598051 212.507C-1.29595 214.401 1.05205 218.614 12.977 234.72C31.683 259.985 30.4151 258.529 32.5821 257.238C36.6451 254.816 35.4361 252.316 20.3001 231.831C9.12906 216.712 5.00905 211.84 3.39605 211.84C2.22405 211.84 0.964051 212.14 0.598051 212.507Z" fill="black"/>
</svg>
