<svg width="301" height="303" viewBox="0 0 301 303" fill="none" xmlns="http://www.w3.org/2000/svg">
<path fill-rule="evenodd" clip-rule="evenodd" d="M14.5 1.84456C9.875 3.95056 3.435 10.6936 1.403 15.5566C0.265 18.2796 0 27.9756 0 66.8326V114.751L2.793 120.097C5.914 126.072 12.075 131.35 17.775 132.933C20.14 133.59 42.347 133.97 78.591 133.973C140.064 133.979 140.971 133.911 148.861 128.69C150.945 127.311 153.805 123.936 155.487 120.871C158.143 116.032 158.487 114.37 158.836 104.665C159.179 95.1396 159.421 93.9286 160.863 94.5026C161.763 94.8606 167.675 97.0946 174 99.4666C180.325 101.839 188.999 105.174 193.276 106.879C203.071 110.784 207.133 110.897 209.927 107.344C211.933 104.794 212 103.597 212 70.2986V35.8876L209.545 33.4336C208.195 32.0836 206.259 30.9786 205.242 30.9786C204.226 30.9786 194.418 34.5326 183.447 38.8766C172.476 43.2206 162.488 47.0756 161.25 47.4436L159 48.1136V34.5836C159 23.3716 158.647 20.1106 156.94 15.5486C154.529 9.10456 148.241 2.96656 142.193 1.15456C139.37 0.308562 121.448 -0.0154376 78.384 0.000562358C22.611 0.0205624 18.225 0.147556 14.5 1.84456ZM142.671 10.2136C144.415 11.1676 146.89 13.4176 148.171 15.2136L150.5 18.4786L150.774 64.9786L151.048 111.479L148.774 115.92C145.797 121.736 142.784 123.792 135.495 124.986C127.294 126.329 25.637 126.284 20.781 124.935C16.29 123.688 11.54 119.858 9.214 115.61C7.686 112.819 7.467 107.877 7.199 70.0786C6.879 24.9346 7.261 19.9476 11.461 14.4406C16.57 7.74256 14.113 7.96556 80 8.23456C134.303 8.45756 139.777 8.63056 142.671 10.2136ZM55.5 31.1066C51.029 33.6126 51 33.8426 51 67.2156V99.0696L53.56 101.63C55.298 103.368 56.872 104.046 58.465 103.741C59.755 103.494 71.837 96.2166 85.313 87.5676C111.571 70.7176 112.863 69.4716 109.458 64.2736C107.876 61.8596 62.024 31.0096 59 30.3246C58.175 30.1376 56.6 30.4896 55.5 31.1066ZM82.302 54.4756C93.193 61.5146 101.743 67.5946 101.302 67.9866C99.738 69.3756 59.274 94.9786 58.642 94.9786C57.785 94.9786 57.812 40.4996 58.669 39.6426C59.037 39.2756 60.049 39.5826 60.919 40.3256C61.788 41.0686 71.411 47.4366 82.302 54.4756ZM204.764 70.7286C204.593 91.2386 204.146 102.401 203.5 102.259C202.95 102.139 192.825 98.3046 181 93.7406L159.5 85.4416V70.9776V56.5136L166.5 53.6456C177.849 48.9966 203.436 39.0976 204.264 39.0356C204.684 39.0046 204.909 53.2656 204.764 70.7286ZM180 127.234C178.625 127.946 177.366 129.457 177.202 130.592C176.559 135.038 177.708 135.162 218.37 135.026C255.016 134.904 257.117 134.997 263.079 137.005C276.618 141.567 286.134 151.621 290.502 165.979C291.935 170.689 292.155 176.194 292.033 204.316C291.908 233.131 291.665 237.877 290.051 243.064C287.333 251.796 282.493 258.643 275.55 263.578C265.578 270.665 266.227 269.376 266.787 280.995C267.22 290.005 267.089 291.227 265.738 290.709C264.889 290.383 258.093 286.26 250.637 281.548L237.081 272.979L205.29 272.948C187.806 272.931 170.194 272.488 166.154 271.963C151.441 270.053 139.236 261.032 132.701 247.238L129.5 240.479V203.859V167.24L133.75 158.858C138.522 149.447 138.864 147.512 136.023 145.991C133.262 144.514 130.589 147.415 126.479 156.35C121.496 167.185 120.776 174.335 121.179 208.979C121.528 238.954 121.579 239.603 124.155 246.695C127.171 254.999 134.209 265.392 139.831 269.845C141.961 271.533 146.021 274.076 148.851 275.498C158.394 280.291 164.603 280.943 200.916 280.962L234.332 280.979L241.916 285.684C246.087 288.272 253.487 292.997 258.359 296.184C272.531 305.454 274 304.628 274 287.399V275.219L279.394 271.147C289.197 263.745 295.042 254.659 298.453 241.519C300.699 232.867 300.705 175.132 298.461 166.439C293.771 148.271 282.156 135.03 265.419 128.776C259.75 126.657 257.873 126.55 221 126.251C190.949 126.008 181.951 126.223 180 127.234ZM162.241 191.974C149.351 199.833 155.12 221.143 169.736 219.658C177.696 218.849 182.337 213.43 182.368 204.908C182.409 193.701 171.21 186.505 162.241 191.974ZM206.5 190.922C203.097 192.31 199.053 197.071 197.841 201.116C194.779 211.335 204.433 222.095 214.416 219.589C221.113 217.909 225.768 210.185 224.576 202.732C223.104 193.526 214.268 187.753 206.5 190.922ZM249 190.681C246.126 191.723 241.03 197.358 239.92 200.722C236.855 210.009 244.052 219.979 253.82 219.979C260.268 219.979 266.997 212.32 266.997 204.979C266.997 195.373 257.302 187.671 249 190.681ZM173 199.979C177.1 204.079 174.186 211.979 168.573 211.979C165.913 211.979 162 207.812 162 204.979C162 202.146 165.913 197.979 168.573 197.979C169.908 197.979 171.9 198.879 173 199.979ZM214.777 199.536C219.315 202.714 216.76 211.979 211.345 211.979C205.71 211.979 203.091 204.64 207.174 200.293C209.719 197.584 211.709 197.386 214.777 199.536ZM257.171 199.634C259.483 201.726 259.582 207.679 257.345 210.15C253.83 214.035 247 210.828 247 205.293C247 202.081 250.558 197.979 253.346 197.979C254.444 197.979 256.165 198.724 257.171 199.634Z" fill="black"/>
</svg>
