<svg width="901" height="373" viewBox="0 0 901 373" fill="none" xmlns="http://www.w3.org/2000/svg">
<path d="M722.154 267.023C802.576 269.814 874.894 365.86 901 422.837L-196.626 424C-210.654 318.186 -166.234 44.9293 37.1598 54.2317C199.875 61.6736 280.297 208.496 300.169 280.976C310.69 303.07 353.94 347.256 442.779 347.256C553.827 347.256 621.625 263.535 722.154 267.023Z" fill="#FF7B4D"/>
<path fill-rule="evenodd" clip-rule="evenodd" d="M92.4551 0.289433C88.8204 1.06536 83.3076 3.44835 79.74 5.78545C73.4885 9.88094 33.013 51.5262 28.1217 58.8954C24.2706 64.6978 23.0351 69.1983 23.0407 77.4116C23.0456 85.6547 22.7578 84.4334 32.6545 118.211C41.8081 149.454 42.5382 151.152 49.8558 158.208C55.701 163.843 59.2675 165.372 76.0185 169.424C100.044 175.235 119.564 179.674 124.398 180.424C130.403 181.357 138.682 180.813 143.325 179.181C151.056 176.464 155 172.969 182.517 144.458C206.897 119.199 207.719 117.855 207.783 103.152L207.821 94.4684L204.289 82.6837C194.898 51.3494 189.942 35.8135 188.165 32.1336C186.832 29.3716 184.738 26.6208 181.514 23.3986C174.204 16.0915 171.654 15.1301 142.329 8.61749C107.707 0.928907 97.4691 -0.781114 92.4551 0.289433ZM92.4879 4.22676C86.585 5.28118 81.0989 8.64044 73.5276 15.8372C62.2074 26.5966 31.9046 58.3136 30.862 60.4937C29.2922 63.7767 30.3807 65.1574 35.7942 66.7502C41.1128 68.3145 96.4482 80.6871 104.074 82.017C109.674 82.9939 112.657 82.6732 115.574 80.7796C118.345 78.9802 124.836 72.5166 142.935 53.5321C166.905 28.3891 170.916 23.9761 170.916 22.7517C170.916 19.9618 167.166 18.7964 131.221 10.4206C104.434 4.17901 98.2717 3.19343 92.4879 4.22676ZM168.388 33.157C160.381 40.9547 126.061 76.6152 121.406 81.9723C117.037 87.0019 116.785 89.0388 119.371 98.4566C121.468 106.095 135.617 152.669 138.719 162.143C140.962 168.996 142.534 170.788 145.832 170.253C147.072 170.052 149.541 168.789 151.318 167.447C154.42 165.105 183.621 135.435 193.488 124.599C201.292 116.03 204.03 108.236 202.604 98.6483C201.969 94.3791 196.046 73.0947 188.494 47.9499C184.172 33.5576 181.063 27.8576 176.984 26.8453C175.466 26.4688 174.609 27.0984 168.388 33.157ZM98.6321 37.9105C94.3865 39.9319 92.0234 42.8055 92.2677 45.6481C92.8216 52.0888 104.929 52.3859 111.202 46.1127C114.284 43.0307 114.58 41.1104 112.37 38.5413C111.037 36.9913 110.423 36.796 106.323 36.6192C102.525 36.4548 101.234 36.6713 98.6321 37.9105ZM165.464 59.7755C162.158 62.0909 160.243 69.2343 161.588 74.2242C163.597 81.6709 171.311 81.8278 174.415 74.4853C175.435 72.07 175.527 64.8268 174.56 62.9499C172.476 58.9028 168.627 57.56 165.464 59.7755ZM27.4451 71.0882C25.936 72.6636 25.7785 73.2715 25.7785 77.5326C25.7785 80.5191 26.3311 84.3584 27.2906 88.0433C29.2791 95.6754 40.064 131.134 42.9221 139.436C46.8055 150.717 52.8405 157.293 62.494 160.762C67.2215 162.461 118.724 174.431 125.331 175.367C127.417 175.663 129.881 175.759 130.806 175.583C133.253 175.115 134.942 172.641 134.942 169.524C134.942 165.919 115.776 97.8556 113.547 93.5461C112.214 90.9671 108.71 88.2014 105.382 87.0986C102.564 86.1658 54.8557 74.4437 39.6236 70.9424C30.7454 68.9012 29.5266 68.9155 27.4451 71.0882ZM47.6291 88.3708C47.1956 88.5457 46.4017 89.5368 45.8652 90.5745C42.8266 96.4507 50.0307 106.563 57.2554 106.563C59.3152 106.563 60.0781 106.211 61.3875 104.655C63.229 102.467 63.3685 100.959 62.0704 97.2812C60.8429 93.8017 57.9129 90.1962 55.3078 88.96C53.2877 88.0011 49.3069 87.6959 47.6291 88.3708ZM152.001 113.57C147.581 117.99 147.496 126.6 151.826 131.209C154.615 134.178 159.445 132.305 161.677 127.391C162.931 124.63 163.254 118.243 162.271 115.657C160.538 111.1 155.496 110.075 152.001 113.57ZM72.8695 114.579C70.6118 116.836 70.5144 119.329 72.5147 123.624C77.0065 133.269 88.4234 134.853 88.4234 125.831C88.4234 121.877 87.7616 120.234 84.8849 117.045C80.7187 112.428 75.9906 111.458 72.8695 114.579ZM98.9918 139.554C98.0788 140.534 97.7272 141.749 97.7272 143.926C97.7272 147.369 98.8771 150.008 101.673 152.979C104.253 155.722 106.446 156.803 109.426 156.803C111.408 156.803 112.193 156.434 113.488 154.895C116.74 151.031 114.563 144.236 108.717 140.001C105.491 137.664 100.947 137.455 98.9918 139.554Z" fill="black" fill-opacity="0.506"/>
<path fill-rule="evenodd" clip-rule="evenodd" d="M89.4705 1.4325C82.8184 3.26099 79.7791 5.42193 68.98 16.0027C54.2113 30.4731 31.4718 54.5151 28.7725 58.5139C24.1169 65.4104 22.1885 73.6547 23.3124 81.8618C23.9451 86.4846 34.3224 123.822 39.228 139.126C42.3522 148.874 44.3463 152.277 50.2591 157.954C56.4188 163.867 59.7241 165.304 76.0186 169.149C81.9885 170.558 94.688 173.558 104.24 175.817C119.489 179.422 122.555 179.959 129.385 180.217C138.396 180.558 142.964 179.677 148.536 176.526C154.157 173.346 197.523 129.656 202.681 121.976C206.759 115.905 208.943 104.735 207.608 96.7813C206.36 89.3377 190.484 37.6419 187.636 31.7471C185.371 27.0574 178.476 20.3066 172.974 17.3908C167.596 14.5408 152.384 10.7821 115.716 3.24238C101.403 0.299304 95.1582 -0.131147 89.4705 1.4325ZM89.9524 4.51575C85.166 6.02853 81.2367 8.46734 75.6892 13.3692C69.2659 19.0444 34.5271 54.7676 31.8861 58.4134C29.874 61.1909 29.6197 63.7413 31.2113 65.1815C32.7011 66.5293 37.7437 67.8318 65.4744 74.0312C95.9242 80.8384 106.584 82.9938 109.797 82.9938C114.963 82.9938 119.269 79.0738 152.409 44.1986C167.62 28.19 171.537 23.7918 171.537 22.7163C171.537 21.5521 168.506 19.1858 166.189 18.5408C160.761 17.0305 118.501 7.07179 110.442 5.40394C101.067 3.46381 94.2191 3.16733 89.9524 4.51575ZM161.358 39.7197C137.917 63.5627 119.505 83.147 118.46 85.3495C116.279 89.9437 116.814 92.1511 132.359 142.76C136.431 156.017 140.312 167.6 140.983 168.5C141.653 169.402 142.958 170.408 143.883 170.737C147.156 171.903 150.37 169.372 167.44 152.191C200.615 118.8 203.161 115.304 203.151 103.152C203.146 97.1999 202.475 94.4361 193.884 65.0066C184.313 32.2241 181.724 26.5724 176.26 26.5395C174.559 26.5296 172.777 28.1056 161.358 39.7197ZM101.894 37.1209C98.4182 37.9862 96.2796 39.2521 94.0975 41.7374C91.7623 44.3977 91.6569 45.7622 93.6119 48.0354C94.8797 49.5091 95.642 49.7771 99.2214 50.0047C104.29 50.3278 107.796 49.1388 111.027 46.0016C112.933 44.1508 113.27 43.4369 113.112 41.591C112.774 37.6469 107.778 35.6559 101.894 37.1209ZM166.885 59.3903C163.795 60.655 161.613 65.179 161.613 70.3203C161.613 74.7761 163.054 77.8519 165.742 79.1334C167.647 80.042 167.99 80.0396 169.963 79.098C173.072 77.615 174.884 73.8265 174.92 68.7281C174.954 63.8747 173.827 60.9192 171.48 59.7054C169.541 58.7024 168.705 58.6454 166.885 59.3903ZM27.7795 70.2558C23.2144 74.097 24.1026 79.74 34.7231 114.378C39.3353 129.422 43.6919 143.089 44.4039 144.75C47.7347 152.52 54.9432 158.674 64.2339 161.677C68.0379 162.907 108.011 172.239 120.59 174.833C127.077 176.172 130.719 176.343 132.495 175.392C134.567 174.283 135.74 171.2 135.313 167.983C135.023 165.799 123.33 124.23 115.593 97.8797C113.963 92.3316 111.571 89.4171 106.977 87.3851C104.373 86.2334 37.9962 69.9041 32.2552 69.0029C30.1103 68.6661 29.4485 68.8515 27.7795 70.2558ZM48.3028 88.5487C41.9546 91.2555 47.7198 104.656 55.9399 106.3C58.4619 106.804 61.609 105.181 62.13 103.107C63.092 99.2728 60.4088 93.0809 56.4901 90.0919C54.1772 88.3279 50.4631 87.6277 48.3028 88.5487ZM153.473 112.459C151.054 113.774 149.208 118.218 149.208 122.724C149.208 126.811 149.746 128.286 152.191 130.908C154.038 132.889 154.761 132.98 157.674 131.598C160.754 130.136 162.479 126.52 162.515 121.449C162.549 116.596 161.422 113.64 159.075 112.426C156.92 111.312 155.57 111.32 153.473 112.459ZM74.468 113.451C72.3864 114.641 71.6768 115.985 71.6768 118.736C71.6768 122.133 72.3728 123.887 74.8327 126.689C78.8388 131.251 84.1178 132.634 86.9008 129.85C88.9712 127.781 88.9092 124.491 86.7178 120.165C84.0744 114.946 77.8334 111.525 74.468 113.451ZM100.35 138.611C99.1879 139.078 97.7272 142.216 97.7272 144.246C97.7272 147.091 100.727 152.38 103.466 154.364C106.668 156.684 109.428 157.2 111.874 155.934C117.518 153.015 113.966 142.372 106.275 139.159C103.983 138.201 101.857 138.005 100.35 138.611Z" fill="#333333" fill-opacity="0.611"/>
<path fill-rule="evenodd" clip-rule="evenodd" d="M702.429 275.398C701.445 275.59 700.062 276.022 699.356 276.357C698.65 276.692 697.957 276.966 697.815 276.966C697.093 276.966 692.847 280.952 691.653 282.751C690.148 285.019 689.688 286.007 688.76 288.957C687.389 293.318 687.877 297.99 690.188 302.65C690.85 303.984 694.389 307.704 697.06 309.873C698.005 310.641 698.449 311.497 698.947 313.511C699.761 316.797 699.786 322.436 699.004 326.126C698.676 327.671 698.405 329.592 698.401 330.395C698.398 331.197 698.125 332.371 697.795 333.003C697.465 333.635 697.194 334.553 697.193 335.042C697.191 335.531 696.943 336.524 696.64 337.249C696.338 337.974 695.874 339.199 695.609 339.972C695.345 340.744 694.569 343.001 693.887 344.988C692.976 347.635 692.638 349.359 692.62 351.443C692.592 354.695 693.177 355.937 695.268 357.061C696.987 357.985 705.918 358.335 709.445 357.616C710.765 357.347 712.839 356.985 714.053 356.811C719.645 356.011 729.048 352.652 733.125 349.998C733.787 349.566 734.736 349.035 735.233 348.816C735.729 348.598 736.136 348.234 736.136 348.008C736.136 347.781 736.346 347.596 736.603 347.596C737.372 347.596 739.655 344.758 739.91 343.486C740.04 342.835 740.028 341.827 739.883 341.249C739.54 339.883 738.167 337.564 737.702 337.564C737.504 337.564 737.341 337.293 737.341 336.962C737.341 336.631 737.07 336.36 736.738 336.36C736.407 336.36 736.136 336.089 736.136 335.758C736.136 335.427 735.953 335.156 735.729 335.156C735.272 335.156 731.755 331.487 729.573 328.735C728.786 327.742 727.863 326.613 727.522 326.227C727.181 325.84 726.902 325.359 726.902 325.156C726.902 324.954 726.759 324.729 726.586 324.655C726.133 324.463 722.775 318.57 721.364 315.492C718.467 309.17 717.835 306.795 718.5 304.731C718.762 303.917 719.148 303.034 719.359 302.769C720.348 301.521 721.334 299.008 721.939 296.192C722.554 293.334 722.555 292.842 721.951 289.551C721.592 287.595 720.932 285.273 720.483 284.39C719.598 282.651 717.117 279.484 715.995 278.663C715.611 278.382 715.03 277.885 714.704 277.559C714.378 277.233 713.962 276.965 713.781 276.964C713.6 276.962 712.95 276.7 712.337 276.38C711.037 275.702 707.222 274.94 705.447 275.004C704.771 275.028 703.412 275.205 702.429 275.398ZM702.209 278.487C700.884 278.857 699.561 279.389 699.27 279.668C698.978 279.948 698.519 280.177 698.25 280.177C697.6 280.177 694.251 283.677 693.452 285.193C691.61 288.686 691.423 289.383 692.12 290.152C692.513 290.587 692.774 291.571 692.774 292.62C692.774 296.325 695.61 302.03 698.026 303.186C701.353 304.776 702.674 306.285 701.02 306.603C700.166 306.767 696.788 305.17 696.267 304.355C696.09 304.08 695.638 303.861 695.263 303.869C694.236 303.892 697.374 306.451 699.911 307.66C706.872 310.977 716.161 305.917 718.635 297.46C719.856 293.288 719.225 287.651 717.15 284.19C716.244 282.678 713.813 280.177 713.25 280.177C713.061 280.177 712.667 279.949 712.375 279.671C711.703 279.031 708.322 278.071 706.224 277.925C705.341 277.863 703.534 278.116 702.209 278.487ZM692.774 301.222C692.774 301.566 692.954 301.847 693.175 301.847C693.396 301.847 693.577 301.677 693.577 301.47C693.577 301.262 693.396 300.98 693.175 300.844C692.954 300.708 692.774 300.878 692.774 301.222ZM694.179 303.051C694.315 303.272 694.506 303.452 694.604 303.452C694.702 303.452 694.781 303.272 694.781 303.051C694.781 302.83 694.59 302.65 694.356 302.65C694.122 302.65 694.042 302.83 694.179 303.051ZM706.324 304.933C705.938 305.034 705.622 305.487 705.622 305.94C705.622 306.648 705.797 306.728 706.876 306.512C707.567 306.374 708.289 306.262 708.482 306.262C708.676 306.262 708.834 305.9 708.834 305.459C708.834 304.654 708.035 304.486 706.324 304.933ZM711.95 309.656C710.462 310.387 708.023 311.197 706.53 311.456C702.194 312.209 701.942 312.285 702.117 312.798C702.209 313.065 702.673 313.228 703.15 313.159C703.939 313.045 704.016 313.213 704.016 315.051C704.016 316.721 704.223 317.306 705.22 318.44C706.388 319.77 706.425 319.935 706.425 323.853C706.425 326.076 706.255 328.31 706.047 328.816C705.84 329.323 705.555 330.612 705.415 331.681C705.178 333.486 705.092 333.606 704.196 333.38C703.382 333.177 703.195 333.312 703.001 334.248C702.723 335.589 701.689 339.317 701.135 340.975C700.914 341.637 700.596 342.721 700.429 343.383C700.262 344.045 699.72 345.377 699.226 346.344C698.399 347.958 698.273 348.048 697.68 347.455C697.091 346.867 697.09 346.692 697.661 345.496C698.006 344.773 698.419 343.584 698.58 342.853C698.74 342.121 699.125 341.038 699.434 340.446C700.087 339.194 700.181 337.564 699.599 337.564C699.378 337.564 699.198 337.943 699.198 338.406C699.198 338.869 698.953 339.817 698.654 340.513C696.414 345.726 695.613 348.296 695.305 351.252C695.132 352.915 695.228 353.192 696.252 354.004C697.361 354.882 697.579 354.9 704.618 354.703C708.593 354.592 712.477 354.314 713.25 354.087C714.023 353.859 715.469 353.493 716.462 353.274C719.193 352.671 721.789 351.98 722.686 351.617C723.127 351.438 724.482 350.894 725.697 350.41C727.874 349.54 733.452 346.639 734.297 345.936C734.536 345.738 735.109 345.262 735.571 344.88C738.062 342.82 737.573 341.027 733.46 337.133C728.931 332.845 722.703 324.94 721.468 321.913C721.333 321.582 721.057 321.04 720.855 320.709C720.654 320.378 719.942 318.933 719.274 317.498C718.606 316.064 717.79 314.379 717.462 313.754C717.133 313.129 716.864 312.271 716.864 311.847C716.864 311.424 716.691 311.077 716.48 311.077C716.27 311.077 715.979 310.445 715.834 309.673C715.689 308.9 715.364 308.282 715.113 308.298C714.861 308.315 713.438 308.926 711.95 309.656Z" fill="#333333"/>
<path fill-rule="evenodd" clip-rule="evenodd" d="M289.827 159.796C277.503 157.727 275.682 158.378 287.252 160.717C292.751 161.827 306.852 165.263 318.591 168.351C338.577 173.608 344.608 174.647 336.949 171.513C332.273 169.601 299.121 161.357 289.827 159.796ZM303.376 166.282C289.705 163.442 259.162 159.525 251.887 159.68C248.667 159.748 247.589 160.125 246.88 161.43C245.694 163.611 247.362 168.031 249.843 169.283C250.861 169.796 252.026 170.416 252.432 170.66C252.845 170.908 252.677 173.843 252.051 177.313C250.651 185.077 250.655 191.246 252.067 198.65C253.244 204.825 255.742 209.461 262.434 217.892C269.451 226.733 272.27 233.9 270.88 239.358C270.19 242.065 264.234 245.409 257.2 247.037C253.515 247.891 249.218 249.217 247.652 249.986C246.085 250.753 243.546 251.847 242.008 252.415C236.612 254.411 231.368 261.71 225.802 274.972C223.742 279.88 222.95 281.019 220.774 282.205C217.31 284.094 215.777 289.274 217.713 292.554C218.876 294.524 219.834 294.975 229.002 297.873C247.258 303.642 275.95 309.317 301.209 312.155C313.918 313.583 317.82 313.662 320.004 312.535C322.085 311.461 322.179 310.797 320.734 307.374C319.942 305.497 318.689 304.1 317.152 303.382L314.789 302.276L315.938 295.83C317.399 287.64 317.478 281.324 316.176 276.758C314.485 270.833 309.93 263.16 304.765 257.534C300.427 252.809 299.768 251.65 298.692 246.859C297.616 242.065 297.649 240.968 298.99 236.712C301.006 230.312 304.276 227.379 309.995 226.847C318.292 226.073 327.094 220.973 333.333 213.325C337.257 208.515 342.972 198.449 343.963 194.604C344.363 193.05 345.519 191.623 347.429 190.321C349.877 188.653 350.329 187.961 350.534 185.565C350.93 180.93 350.808 180.314 349.239 179.046C347.125 177.338 319.261 169.583 303.376 166.282ZM309.407 170.733C312.284 171.622 317.051 172.85 320 173.462C322.95 174.074 320.595 173.346 314.769 171.845C308.942 170.344 306.53 169.844 309.407 170.733ZM346.612 181.299C347.804 182.592 348.772 182.841 348.439 181.769C348.294 181.303 347.618 180.784 346.937 180.615C345.87 180.351 345.825 180.445 346.612 181.299ZM271.806 165.672C272.279 166.019 272.916 166.155 273.221 165.975C273.526 165.795 273.139 165.512 272.361 165.345C271.501 165.16 271.283 165.289 271.806 165.672ZM264.024 164.693C263.644 165.058 264.422 165.575 265.941 165.966C267.348 166.329 268.786 166.349 269.138 166.011C269.518 165.646 268.74 165.129 267.221 164.738C265.814 164.375 264.376 164.355 264.024 164.693ZM337.251 184.368C316.559 182.348 303.232 179.819 275.069 172.566C260.114 168.714 248.279 165.946 248.77 166.414C252.14 169.633 282.761 179.107 304.483 183.652C318.639 186.614 339.563 190.002 340.453 189.477C340.68 189.343 336.762 188.321 331.748 187.206C323.732 185.422 323.269 185.255 327.92 185.814C347.62 188.185 347.95 188.2 348.323 186.751C348.645 185.505 348.433 185.46 337.251 184.368ZM323.945 189.143C309.738 187.07 283.968 181.016 270.367 176.557C263.677 174.363 258.112 172.627 258.001 172.698C257.192 173.216 254.989 193.816 255.357 197.428C255.945 203.19 260.027 210.022 267.613 217.937C274.232 224.843 276.209 229.026 275.525 234.682C275.14 237.863 274.577 239.13 272.293 241.945C269.208 245.748 266.187 247.261 258.282 248.963C246.827 251.429 242.122 254.17 237.154 261.273C234.607 264.914 228.073 279.924 228.627 280.862C228.78 281.122 235.373 282.426 243.278 283.76C264.897 287.41 279.745 290.843 295.228 295.774C302.912 298.221 309.379 300.118 309.599 299.989C310.254 299.601 312.564 283.087 312.579 278.679C312.608 270.696 309.359 264.114 302.075 257.393C296.345 252.107 292.268 245.543 292.192 241.483C292.123 237.821 292.187 237.579 294.363 233.226C296.877 228.194 300.805 225.872 310.425 223.731C314.828 222.752 320.003 221.053 321.927 219.956C328.378 216.281 333.314 209.125 337.456 197.443L339.418 191.91L336.187 191.184C334.41 190.785 328.901 189.866 323.945 189.143ZM265.713 180.273C267.064 181.564 302.104 190.511 307.145 190.852C309.849 191.034 304.177 189.372 287.819 185.19C272.989 181.399 265.042 179.631 265.713 180.273ZM331.019 199.485C330.519 201.426 330.383 202.854 330.718 202.656C331.418 202.243 332.641 197.159 332.214 196.436C332.057 196.171 331.52 197.543 331.019 199.485ZM290.328 195.646C280.813 193.801 265.106 193.396 265.106 193.396C256.978 194.571 259.5 202.088 271.547 212.597C279.564 219.589 281.59 222.584 282.248 228.406C282.922 234.367 283.15 235.297 284.089 235.905C284.978 236.479 286.235 234.959 289.306 229.596C292.766 223.554 296.698 221.69 309.532 220.008C321.826 218.396 329.461 210.589 323.304 205.927C321.466 204.537 303.009 197.839 299.987 197.466C299.571 197.415 295.225 196.596 290.328 195.646ZM338.462 216.212C333.914 222.254 322.604 228.486 316.255 228.446C315.131 228.439 314.136 228.726 314.043 229.084C313.413 231.531 324.273 229.073 329.894 225.497C334.424 222.615 336.729 220.369 339.711 215.927C342.405 211.917 341.547 212.112 338.462 216.212ZM331.849 228.621C327.016 231.322 325.907 233.477 330.479 231.284C332.797 230.172 337.267 226.358 336.422 226.215C336.309 226.196 334.251 227.279 331.849 228.621ZM282.931 239.195C281.897 240.649 282.508 241.685 283.912 240.856C284.741 240.367 284.848 239.959 284.366 239.142C283.883 238.324 283.542 238.337 282.931 239.195ZM280.877 248.955C280.713 249.592 281.002 250.083 281.521 250.047C282.992 249.944 283.621 248.429 282.331 248.097C281.696 247.933 281.041 248.32 280.877 248.955ZM293.579 254.082C293.489 254.432 295.579 257.549 298.222 261.008C300.865 264.467 303.981 268.98 305.145 271.037C307.526 275.243 309.299 276.334 309.179 273.518C309.138 272.543 308.63 270.853 308.049 269.76C306.695 267.214 293.797 253.238 293.579 254.082ZM282.414 253.572C282.062 253.909 282.123 254.276 282.548 254.385C282.973 254.495 283.406 254.256 283.51 253.854C283.613 253.452 283.553 253.086 283.376 253.04C283.198 252.995 282.766 253.234 282.414 253.572ZM240.047 245.653C233.594 247.635 226.955 253.663 226.497 257.956C226.345 259.388 227.164 258.752 230.465 254.875C233.354 251.483 236.034 249.256 239.233 247.59C244.046 245.084 244.364 244.327 240.047 245.653ZM230.53 244.841C229.333 245.351 228.541 246.085 228.769 246.472C228.998 246.859 230.3 246.516 231.663 245.712C234.506 244.034 233.763 243.463 230.53 244.841ZM258.754 252.446C252.834 252.865 249.727 254.219 246.593 257.75C243.515 261.216 243.794 261.44 248.107 258.972C250.243 257.751 254.887 256.041 258.428 255.173C268.17 252.786 268.292 251.773 258.754 252.446ZM275.235 259.156C273.758 259.864 271.518 261.434 270.258 262.644C267.199 265.582 259.456 268.06 252.367 268.372C241.334 268.857 239.759 269.156 237.697 271.16C236.458 272.364 235.362 274.435 234.787 276.662L233.864 280.234L237.811 280.79C239.982 281.096 247.855 282.173 255.307 283.184C267.709 284.867 270.139 285.424 283.998 289.76C292.326 292.366 300.701 294.9 302.608 295.391L306.077 296.285L307.118 292.244C309.278 283.862 307.311 280.546 297.035 275.246C289.483 271.351 286.757 268.973 282.961 262.969C281.38 260.47 279.6 258.3 279.005 258.147C278.409 257.993 276.712 258.447 275.235 259.156ZM244.07 276.15C244.52 276.482 245.342 276.694 245.897 276.62C246.451 276.547 246.083 276.275 245.078 276.017C244.074 275.758 243.62 275.818 244.07 276.15ZM235.942 278.214C235.839 278.616 236.102 279.034 236.528 279.144C236.953 279.253 237.183 278.962 237.038 278.496C236.893 278.031 236.63 277.612 236.453 277.566C236.275 277.521 236.046 277.812 235.942 278.214ZM249.4 286.457C237.442 284.389 224.851 282.954 222.879 283.435C220.338 284.055 221.02 284.519 224.639 284.631C226.365 284.685 231.818 285.256 236.756 285.9C253.413 288.071 254.591 288.284 253.851 288.994C253.469 289.361 252.105 289.402 250.819 289.085C248.488 288.511 227.655 287.562 229.236 288.102C229.695 288.259 235.771 289.167 242.74 290.12C261.484 292.684 285.091 297.663 302.103 302.64C310.271 305.03 317.487 307.297 318.139 307.679C320.31 308.952 319.73 306.949 317.521 305.542C311.752 301.869 268.588 289.776 249.4 286.457ZM225.506 287.727C225.956 288.059 226.778 288.271 227.332 288.197C227.887 288.124 227.518 287.853 226.514 287.594C225.509 287.335 225.056 287.395 225.506 287.727ZM220.203 287.14C220.654 287.472 221.476 287.684 222.03 287.61C222.585 287.537 222.216 287.265 221.211 287.007C220.207 286.748 219.754 286.808 220.203 287.14ZM235.84 295.241C233.077 294.982 232.953 295.048 234.488 295.953C237.337 297.635 241.782 298.54 241.709 297.424C241.631 296.246 239.972 295.628 235.84 295.241ZM244.274 298.037C244.93 298.402 246.08 298.699 246.831 298.696C247.581 298.694 247.044 298.395 245.638 298.033C244.232 297.67 243.617 297.672 244.274 298.037ZM226.604 300.851C228.25 302.615 251.089 309.167 252.561 308.298C253.319 307.851 251.376 307.121 245.152 305.517C240.511 304.322 234.164 302.488 231.048 301.444C226.287 299.847 225.577 299.753 226.604 300.851Z" fill="#333333"/>
</svg>
