<svg width="254" height="285" viewBox="0 0 254 285" fill="none" xmlns="http://www.w3.org/2000/svg">
<g filter="url(#filter0_d_110_15)">
<ellipse cx="51" cy="119.5" rx="19" ry="27.5" fill="#FFC4AF"/>
<ellipse cx="223" cy="119.5" rx="19" ry="27.5" fill="#FFC4AF"/>
<path d="M140.782 182C112.656 180.309 90.76 171.453 81.6711 157.134C69.716 138.299 69.4564 109.544 80.4328 90.123C81.4539 88.3163 82.6966 86.564 84.1525 84.8184C87.5187 80.7824 93.7102 77.2233 98.7197 75.6339C122.176 68.1918 153.71 64.9237 176.138 75.0519C177.548 75.6886 178.999 76.4252 180.499 77.2617C185.812 80.2245 190.293 84.5955 193.136 89.9733C193.678 90.9989 194.163 92.0026 194.592 92.9909C202.393 110.987 201.12 134.374 193.178 152.308C192.789 153.186 192.353 154.07 191.869 154.964C188.712 160.793 183.721 165.397 178.269 169.167C166.467 177.329 157.229 180.977 140.782 182Z" fill="#FF7B4D"/>
<path d="M139.5 176C114.409 174.296 96.4227 164.769 90.6505 149.536C83.864 131.626 83.175 109.834 89.1127 91.6249C89.9145 89.1661 91.1587 86.8397 92.8746 84.4736C95.3435 81.0692 100.159 77.9656 104.105 76.5103C123.395 69.3954 151.538 66.4919 169.637 76.2479C171.076 77.0236 172.57 77.9383 174.131 78.9918C177.574 81.3144 180.48 84.3912 182.518 88.0093C183.44 89.6449 184.216 91.2133 184.85 92.7421C191.981 109.942 190.484 131.57 183.688 148.904C183.484 149.423 183.266 149.943 183.031 150.467C180.273 156.631 175.479 161.666 170.014 165.632C160.587 172.472 152.736 175.07 139.5 176Z" fill="white"/>
<circle cx="176.55" cy="135.515" r="5.95336" fill="#FF7B4D"/>
<circle cx="96.4494" cy="135.515" r="5.95336" fill="#FF7B4D"/>
<ellipse cx="222.283" cy="118.467" rx="10.5537" ry="15.9658" fill="#FF7B4D"/>
<ellipse cx="51.2597" cy="118.467" rx="10.5537" ry="15.9658" fill="#FF7B4D"/>
<path d="M210.105 272.442H59.1064C62.8039 228.451 70.0821 210.619 92.6617 191.26H172.635C186.617 191.26 202.991 218.706 210.105 272.442Z" fill="white"/>
<path fill-rule="evenodd" clip-rule="evenodd" d="M125.701 7.51914C124.046 9.62265 123.142 12.2051 123.577 13.5908C123.994 14.9185 124.663 17.0666 125.062 18.3646C125.67 20.3318 123.954 21.2345 114.783 23.7724C99.4997 28.0037 83.8625 35.9631 69.6401 46.7545C55.1261 57.7673 48.7338 65.5377 48.7338 72.1721C48.7338 76.2887 49.3318 77.1077 53.6586 78.9144C59.1316 81.2 60.6017 80.9626 91.2592 72.8305C118.995 65.4743 152.418 59.5847 180.298 57.1412C190.053 56.2858 191.445 55.7919 195.486 51.7536C198.913 48.3278 199.935 46.1609 199.935 42.3195C199.935 27.9835 185.49 20.379 155.771 19.0689C140.27 18.3848 139.363 18.1919 140.617 15.8509C145.469 6.78918 132.135 -0.657434 125.701 7.51914ZM167.535 66.0315C152.854 67.6345 119.909 72.9007 117.841 73.976C116.729 74.5535 117.991 75.4697 121.24 76.4425C124.083 77.2939 128.687 80.323 131.472 83.1727L136.535 88.3539L142.525 82.6168C152.045 73.4998 164.223 71.5649 176.406 77.2345C189.651 83.398 197.775 98.7554 194.577 111.583C193.714 115.042 192.169 119.171 191.14 120.758C189.508 123.277 189.605 124.294 191.904 128.801C202.064 148.72 182.277 172.513 150.387 178.721C122.588 184.132 90.9798 171.67 81.6106 151.605C77.7915 143.426 77.5728 135.647 80.9761 128.976C83.4737 124.08 83.4723 123.899 80.8803 118.661C75.5086 107.81 78.804 90.3157 87.5089 83.4722C92.0571 79.8966 89.5487 79.9843 76.1363 83.8675C66.4621 86.6673 64.9852 86.7833 60.7948 85.0711C50.6076 80.9086 35.5806 86.1694 27.5453 96.7112C17.9818 109.261 16.9922 124.489 24.8857 137.637C31.0526 147.908 38.4898 152.69 49.375 153.383C54.1527 153.687 60.0631 153.232 62.5106 152.371C66.292 151.042 67.1614 151.142 68.309 153.041C72.9125 160.652 81.0301 169.035 89.2058 174.617L98.6235 181.05L93.592 184.752C81.3136 193.786 69.0231 214.641 63.7014 235.473C61.0081 246.019 58.0826 270.463 59.3611 271.742C59.704 272.084 61.0675 272.365 62.3918 272.365C64.375 272.365 64.8705 270.999 65.2039 264.606L65.6089 256.848L77.4216 256.458L89.2342 256.068V260.168C89.2342 264.189 89.1032 264.269 82.4841 264.269C75.8839 264.269 75.734 264.359 75.734 268.317V272.365H136.485H197.235V268.317C197.235 264.359 197.085 264.269 190.485 264.269C183.866 264.269 183.735 264.189 183.735 260.168V256.068L195.548 256.458L207.36 256.848L207.765 264.606C208.112 271.261 208.544 272.365 210.803 272.365C213.116 272.365 213.436 271.397 213.436 264.388C213.436 247.187 206.212 221.336 197.095 205.909C192.157 197.553 178.03 181.963 175.396 181.963C172.719 181.963 174.724 179.744 179.442 177.487C186.95 173.895 196.487 165.278 201.478 157.581C204.766 152.512 206.372 151.102 207.954 151.896C209.113 152.478 214.966 152.954 220.963 152.954C230.644 152.954 232.504 152.53 237.572 149.176C249.17 141.5 255.781 125.112 252.609 111.897C248.782 95.9516 235.878 84.3708 221.772 84.2224C217.558 84.1779 212.135 84.6447 209.723 85.26C206.668 86.0399 205.335 85.909 205.335 84.8296C205.335 82.6653 197.823 71.9764 193.461 67.9354C189.471 64.2384 186.185 63.9968 167.535 66.0315ZM60.5626 96.7328C61.675 97.4385 61.9693 99.2964 61.409 102.093C60.6706 105.786 60.113 106.263 57.3428 105.568C53.4655 104.595 47.3837 105.946 47.3837 107.779C47.3837 108.508 48.5637 109.103 50.0068 109.103C53.1307 109.103 56.8338 113.933 56.8338 118.008C56.8338 119.607 57.7451 121.671 58.8589 122.596C59.9726 123.52 60.8839 125.874 60.8839 127.829C60.8839 129.785 61.4495 133.355 62.1407 135.762C63.2221 139.534 63.0088 140.349 60.5936 141.641C56.6381 143.756 45.1616 142.356 40.8713 139.233C38.884 137.788 35.8519 133.908 34.1333 130.612C28.1487 119.14 32.2163 104.858 43.2945 98.4342C48.0979 95.6494 57.4089 94.7319 60.5626 96.7328ZM230.4 98.9645C250.55 110.767 241.926 142.895 218.632 142.814C209.777 142.783 209.286 142.09 211.467 132.699C212.5 128.256 213.892 123.405 214.56 121.921C215.228 120.437 216.326 117.402 217 115.177C217.729 112.769 219.794 110.381 222.107 109.273C225.545 107.625 225.722 107.263 223.644 106.101C222.354 105.379 219.274 105.024 216.804 105.311C212.736 105.786 212.233 105.454 211.506 101.825C210.999 99.2856 211.329 97.4169 212.407 96.7328C215.886 94.5254 224.684 95.617 230.4 98.9645ZM104.179 104.267C103.243 105.394 102.76 109.407 103.002 114.049C103.404 121.805 103.469 121.921 107.459 121.921C111.45 121.921 111.515 121.805 111.917 114.049C112.325 106.202 110.859 102.357 107.459 102.357C106.528 102.357 105.051 103.216 104.179 104.267ZM162.229 104.267C161.294 105.394 160.811 109.407 161.052 114.049C161.455 121.805 161.519 121.921 165.51 121.921C169.501 121.921 169.565 121.805 169.968 114.049C170.375 106.202 168.909 102.357 165.51 102.357C164.578 102.357 163.102 103.216 162.229 104.267ZM130.508 123.363C128.883 124.988 128.723 126.105 129.824 128.16C131.707 131.676 141.523 131.266 143.772 127.576C146.868 122.497 135.112 118.764 130.508 123.363ZM93.7756 134.055C93.3085 135.273 93.5731 136.917 94.3642 137.707C96.4217 139.764 100.318 137.884 99.7805 135.097C99.1824 131.991 94.857 131.24 93.7756 134.055ZM173.426 134.055C172.959 135.273 173.224 136.917 174.015 137.707C176.073 139.764 179.969 137.884 179.431 135.097C178.833 131.991 174.508 131.24 173.426 134.055ZM118.069 138.123C116.962 141.004 118.567 148.457 121.059 152.012L123.172 155.027L126.635 152.304C131.394 148.562 141.609 148.589 146.401 152.356L149.931 155.132L152.652 150.67C155.45 146.085 156.323 138.176 154.178 136.852C153.515 136.442 150.8 137.013 148.146 138.122C141.956 140.706 131.002 140.701 124.802 138.112C118.864 135.634 119.025 135.632 118.069 138.123ZM105.434 194.782C105.434 198.016 105.09 198.155 97.0994 198.155H88.763L91.9342 194.782C94.2441 192.323 96.5067 191.408 100.269 191.408C104.878 191.408 105.434 191.771 105.434 194.782ZM156.735 194.782V198.155H136.485H116.234V194.782V191.408H136.485H156.735V194.782ZM181.035 194.782L184.206 198.155H175.87C167.879 198.155 167.535 198.016 167.535 194.782C167.535 191.771 168.091 191.408 172.7 191.408C176.463 191.408 178.725 192.323 181.035 194.782ZM105.434 208.274C105.434 211.123 104.804 211.647 101.384 211.647C97.9647 211.647 97.3343 211.123 97.3343 208.274C97.3343 205.426 97.9647 204.901 101.384 204.901C104.804 204.901 105.434 205.426 105.434 208.274ZM156.735 208.274V211.647H136.485H116.234V208.274V204.901H136.485H156.735V208.274ZM175.635 208.274C175.635 211.123 175.005 211.647 171.585 211.647C168.165 211.647 167.535 211.123 167.535 208.274C167.535 205.426 168.165 204.901 171.585 204.901C175.005 204.901 175.635 205.426 175.635 208.274ZM90.9217 208.54C91.4779 208.853 91.9342 210.893 91.9342 213.076C91.9342 217.366 90.6476 217.799 82.6529 216.201C77.9346 215.258 77.4472 213.655 80.5401 209.243C82.175 206.909 83.4548 206.432 86.2776 207.106C88.2743 207.582 90.3655 208.228 90.9217 208.54ZM192.575 210.424C193.763 212.719 194.489 214.841 194.191 215.141C193.891 215.439 190.765 216.078 187.241 216.561L180.834 217.438L181.273 212.909C181.686 208.637 183.479 207.204 189.438 206.385C189.976 206.311 191.387 208.128 192.575 210.424ZM105.434 221.767C105.434 224.615 104.804 225.14 101.384 225.14C97.9647 225.14 97.3343 224.615 97.3343 221.767C97.3343 218.919 97.9647 218.394 101.384 218.394C104.804 218.394 105.434 218.919 105.434 221.767ZM156.735 221.767V225.14H136.485H116.234V221.767V218.394H136.485H156.735V221.767ZM175.635 221.767C175.635 224.615 175.005 225.14 171.585 225.14C168.165 225.14 167.535 224.615 167.535 221.767C167.535 218.919 168.165 218.394 171.585 218.394C175.005 218.394 175.635 218.919 175.635 221.767ZM85.5216 224.523C90.0509 225.344 90.5842 225.869 90.5842 229.514C90.5842 233.472 90.4384 233.565 85.5216 232.753C82.7379 232.293 78.4854 231.909 76.0715 231.901C71.31 231.885 70.9806 231.213 73.0543 225.761C74.1262 222.943 75.082 222.317 77.4418 222.883C79.101 223.281 82.7379 224.019 85.5216 224.523ZM200.301 226.912C200.998 228.998 201.352 230.888 201.088 231.112C200.825 231.335 196.51 231.922 191.498 232.414L182.385 233.311V229.371C182.385 225.761 182.92 225.32 188.798 224.082C197.585 222.232 198.846 222.543 200.301 226.912ZM156.735 233.91V237.284H136.485H116.234V233.91V230.537H136.485H156.735V233.91ZM175.635 234.743C175.635 236.667 174.651 237.284 171.585 237.284C168.558 237.284 167.535 236.659 167.535 234.81C167.535 231.413 168.404 230.819 172.292 231.563C174.44 231.973 175.635 233.109 175.635 234.743ZM105.434 234.585C105.434 236.684 104.534 237.284 101.384 237.284C98.2347 237.284 97.3343 236.684 97.3343 234.585C97.3343 232.486 98.2347 231.886 101.384 231.886C104.534 231.886 105.434 232.486 105.434 234.585ZM84.2459 240.752C90.2656 241.594 90.7017 241.914 90.3209 245.206C89.9092 248.752 89.9078 248.752 79.1091 248.268C73.169 248.001 68.0997 247.589 67.8432 247.352C67.5867 247.116 67.7987 245 68.3157 242.652C69.1757 238.739 69.6077 238.444 73.5065 239.114C75.8447 239.517 80.6778 240.255 84.2459 240.752ZM204.682 242.778C205.183 245.057 205.383 247.097 205.126 247.311C204.87 247.526 199.952 248.082 194.198 248.547L183.735 249.392V245.445C183.735 241.755 184.155 241.441 190.148 240.634C193.675 240.159 197.168 239.562 197.91 239.307C201.958 237.923 203.825 238.88 204.682 242.778ZM114.625 244.251C114.936 246.931 114.317 248.076 112.198 248.748C107.154 250.347 103.489 245.165 107.106 241.55C109.931 238.726 114.162 240.246 114.625 244.251ZM166.085 242.494C167.841 245.774 164.954 249.907 161.386 249.22C158.663 248.697 157.337 245.224 158.603 241.928C159.668 239.155 164.492 239.521 166.085 242.494Z" fill="black"/>
<circle cx="162.478" cy="244.841" r="5.95336" fill="#FF7B4D"/>
<circle cx="109.439" cy="244.841" r="5.95336" fill="#FF7B4D"/>
<path d="M66.4186 79.4946L125.676 64.616C140.922 62.1142 148.346 61.09 159.773 59.8804L185.095 56.3635C188.951 55.8279 191.913 59.7091 190.38 63.2873C190.027 64.1094 189.263 64.6807 188.375 64.7856L125.676 72.193C102.431 75.7742 91.1605 81.4501 67.8234 85.9674C66.118 86.2975 64.451 85.2369 64.0125 83.5562C63.5463 81.7689 64.6271 79.9444 66.4186 79.4946Z" fill="white"/>
<path d="M151.383 152.292C149.76 157.434 143.973 160.14 136.5 160.14C129.027 160.14 121.617 155.58 121.617 152.292C121.617 149.004 129.027 146.609 136.5 146.609C143.973 146.609 151.383 149.004 151.383 152.292Z" fill="#FF7B4D"/>
</g>
<rect x="61" y="264" width="150" height="8" fill="black"/>
<defs>
<filter id="filter0_d_110_15" x="0.797656" y="0.2" width="252.605" height="284.042" filterUnits="userSpaceOnUse" color-interpolation-filters="sRGB">
<feFlood flood-opacity="0" result="BackgroundImageFix"/>
<feColorMatrix in="SourceAlpha" type="matrix" values="0 0 0 0 0 0 0 0 0 0 0 0 0 0 0 0 0 0 127 0" result="hardAlpha"/>
<feOffset dx="-11" dy="4"/>
<feGaussianBlur stdDeviation="3.9"/>
<feComposite in2="hardAlpha" operator="out"/>
<feColorMatrix type="matrix" values="0 0 0 0 0 0 0 0 0 0 0 0 0 0 0 0 0 0 0.25 0"/>
<feBlend mode="normal" in2="BackgroundImageFix" result="effect1_dropShadow_110_15"/>
<feBlend mode="normal" in="SourceGraphic" in2="effect1_dropShadow_110_15" result="shape"/>
</filter>
</defs>
</svg>
