<svg width="493" height="450" viewBox="0 0 493 450" fill="none" xmlns="http://www.w3.org/2000/svg">
<path d="M222.201 218.362C128.516 223.754 66.7271 357.264 47.5431 423.346L0 639H552C546.995 614.851 450.908 354.831 406.368 272.837C361.828 190.844 339.307 211.623 222.201 218.362Z" fill="#60BFB2"/>
<path fill-rule="evenodd" clip-rule="evenodd" d="M142.597 195.221C136.895 196.442 131.42 199.802 128.277 204.009C125.151 208.193 123.788 211.529 123.24 216.342L122.91 219.234L121.366 216.369C116.332 207.028 105.757 202.842 95.815 206.254C92.9447 207.239 91.2287 208.359 88.249 211.191C81.215 217.877 81.1898 229.432 88.1914 237.215C89.3348 238.486 90.9922 239.972 91.8749 240.517C92.7576 241.062 93.3545 241.634 93.2008 241.787C93.0476 241.941 89.7514 242.205 85.8763 242.375C77.3915 242.747 75.7139 243.325 74.7617 246.204C74.383 247.348 74.0574 251.582 73.8909 257.518L73.6252 267.003H65.0219H56.4182L52.6277 264.559C47.8941 261.507 45.8675 260.45 45.4815 260.835C45.085 261.23 44.8051 280.932 45.1687 282.869C45.3525 283.847 45.7148 284.373 46.2055 284.373C46.6203 284.373 49.0827 282.933 51.6782 281.173L56.3972 277.973H64.8156H73.2337L73.3855 290.908C73.557 305.545 73.6476 305.957 76.8491 306.636C77.7944 306.836 99.5603 307 125.218 307C171.427 307 171.883 306.991 173.469 306.062C174.938 305.202 175.093 304.903 175.362 302.406C175.524 300.91 175.678 297.578 175.705 295.001L175.755 290.315H178.924C183.247 290.315 183.739 289.729 184.099 284.154C184.211 282.418 184.298 282.322 186.046 282.022C187.052 281.848 188.45 281.485 189.153 281.215C190.365 280.749 190.818 281.031 198.071 286.788C207.064 293.926 208.648 295.076 209 294.724C209.931 293.794 210.429 250.764 209.519 249.857C208.907 249.246 207.425 250.154 203.175 253.745C200.797 255.754 196.999 258.92 194.735 260.782L190.619 264.166L187.303 263.923L183.988 263.68L183.985 261.57C183.982 258.687 183.208 256.136 182.168 255.58C181.693 255.326 179.952 255.118 178.301 255.118H175.298V250.288C175.298 247.632 175.09 245.07 174.835 244.594C174.13 243.277 171.517 242.782 165.236 242.773C162.092 242.769 158.761 242.64 157.834 242.487L156.149 242.209L158.858 240.401C165.445 236.005 169.506 229.085 170.123 221.207C170.823 212.262 166.514 203.635 158.758 198.458C157.239 197.445 155.003 196.32 153.789 195.96C150.943 195.115 144.943 194.72 142.597 195.221ZM141.575 197.312C138.213 198.217 135.196 199.839 132.568 202.156C124.258 209.481 122.471 222.314 128.459 231.669C132.907 238.62 141.315 242.952 148.543 242.018C156.232 241.025 162.391 236.54 165.927 229.357C171.458 218.124 166.997 204.55 156.004 199.16C150.831 196.624 146.29 196.043 141.575 197.312ZM131.627 204.95C129.156 207.831 127.329 212.009 126.834 215.913C126.376 219.521 126.858 224.714 127.731 225.586C128.227 226.081 128.186 225.29 127.467 220.526C126.857 216.492 129.127 209.52 132.462 205.178C134.533 202.482 133.893 202.307 131.627 204.95ZM97.5589 207.397C92.566 208.738 88.4695 212.232 86.1873 217.097C85.1299 219.352 84.9735 220.26 84.9922 224.034C85.011 227.729 85.1935 228.766 86.2184 230.99C89.5612 238.247 98.5477 243.197 106.107 241.945C121.01 239.477 126.808 222.34 116.149 212.264C113.248 209.522 110.922 208.266 107.052 207.355C103.489 206.515 100.798 206.527 97.5589 207.397ZM143.055 211.645C139.48 213.298 137.795 215.987 137.795 220.034C137.795 224.976 141.006 228.57 145.775 228.965C152.493 229.522 156.982 224.584 155.602 218.154C154.384 212.473 148.198 209.264 143.055 211.645ZM87.9874 215.582C86.3135 218.22 85.4692 221.997 85.7825 225.448C86.0053 227.907 86.8509 230.307 87.3261 229.832C87.4491 229.709 87.3019 228.348 86.9986 226.808C86.265 223.082 86.6753 220.136 88.4045 216.713C90.1374 213.282 89.8832 212.594 87.9874 215.582ZM99.0302 219.461C93.6371 222.747 95.2927 230.369 101.583 231.212C103.864 231.518 106.494 230.313 107.689 228.413C108.937 226.43 108.644 222.652 107.114 221.016C104.708 218.442 101.664 217.856 99.0302 219.461ZM123.194 228.46C121.882 233.743 118.736 238.315 114.596 240.957L112.663 242.191L115.463 242.483C119.044 242.857 131.347 242.856 134.47 242.48L136.862 242.193L134.912 240.957C130.343 238.062 127.112 234.243 125.003 229.248L123.741 226.258L123.194 228.46ZM128.663 228.241C128.633 228.88 129.719 230.891 130.094 230.891C130.304 230.891 130.477 230.708 130.477 230.484C130.477 229.996 128.685 227.78 128.663 228.241ZM87.9582 231.435C87.9499 231.86 88.1631 232.344 88.4315 232.509C89.2374 233.007 89.3503 232.482 88.6392 231.543C88.0537 230.77 87.971 230.756 87.9582 231.435ZM83.37 244.47C80.9803 244.543 78.5779 244.706 78.0318 244.832C75.9083 245.321 75.8237 246.523 75.8237 276.22C75.8237 291.472 75.9952 304.123 76.2042 304.333C76.7672 304.897 116 305.445 145.423 305.299C170.75 305.173 171.134 305.158 172.407 304.207L173.697 303.243V274.572C173.697 247.936 173.641 245.86 172.907 245.324C172.419 244.968 169.726 244.632 165.86 244.447C159.961 244.164 92.7329 244.183 83.37 244.47ZM149.437 248.469C148.729 249.176 148.314 250.113 148.314 251.004C148.314 252.616 150.058 254.661 151.433 254.661C151.914 254.661 152.849 254.234 153.512 253.713C154.442 252.983 154.717 252.363 154.717 251.004C154.717 249.645 154.442 249.025 153.512 248.294C151.929 247.05 150.808 247.098 149.437 248.469ZM166.86 248.425C165.33 249.954 165.313 252.036 166.816 253.538C167.434 254.156 168.369 254.661 168.895 254.661C169.421 254.661 170.356 254.156 170.974 253.538C173.008 251.506 172.066 248.214 169.261 247.551C168.307 247.326 167.761 247.525 166.86 248.425ZM157.952 249.008C156.694 250.606 156.755 252.168 158.127 253.538C160.377 255.788 163.864 254.435 163.864 251.312C163.864 248.11 159.881 246.558 157.952 249.008ZM198.979 259.363L190.873 266.317L190.879 272.717L190.885 279.116L199.213 285.687L207.541 292.257L207.83 290.943C207.989 290.221 208.144 282.512 208.173 273.812C208.225 258.789 207.981 252.354 207.362 252.392C207.209 252.402 203.437 255.539 198.979 259.363ZM206.246 256.337C205.744 256.837 205.889 265.631 206.398 265.631C206.674 265.631 206.855 263.727 206.855 260.832C206.855 256.037 206.818 255.764 206.246 256.337ZM175.3 266.139C175.301 271.517 175.436 278.847 175.599 282.43L175.898 288.944H178.286C179.952 288.944 180.864 288.715 181.302 288.187C182.132 287.184 182.235 258.211 181.411 257.387C181.126 257.103 179.633 256.755 178.095 256.616L175.298 256.362L175.3 266.139ZM83.6961 258.673L82.4553 259.967V275.985C82.4553 291.487 82.485 292.029 83.3814 292.84C84.839 294.158 93.0366 294.492 120.187 294.338C145.859 294.193 145.844 294.194 147.005 292.026C147.379 291.328 147.612 286.138 147.759 275.238L147.972 259.46L146.952 258.546C145.956 257.654 145.194 257.629 115.435 257.505L84.9369 257.379L83.6961 258.673ZM92.4055 259.091C85.6755 259.256 85.6604 259.259 84.8591 260.48C84.1457 261.568 84.0391 263.302 83.9019 276.053L83.7482 290.401L84.7823 291.501L85.8164 292.601H111.965C140.579 292.601 144.894 292.43 145.365 291.279C145.531 290.874 145.886 286.403 146.156 281.341C146.69 271.341 146.213 260.606 145.191 259.585C144.762 259.155 139.232 259.011 121.889 258.973C109.381 258.947 96.1141 258.999 92.4055 259.091ZM205.941 268.603C205.941 269.231 206.146 269.745 206.398 269.745C206.649 269.745 206.855 269.231 206.855 268.603C206.855 267.974 206.649 267.46 206.398 267.46C206.146 267.46 205.941 267.974 205.941 268.603ZM149.686 303.572C149.686 303.856 152.278 304.029 156.546 304.029C160.815 304.029 163.407 303.856 163.407 303.572C163.407 303.287 160.815 303.115 156.546 303.115C152.278 303.115 149.686 303.287 149.686 303.572ZM165.465 303.572C165.304 303.831 165.689 304.029 166.353 304.029C166.996 304.029 167.523 303.823 167.523 303.572C167.523 303.32 167.124 303.115 166.635 303.115C166.147 303.115 165.62 303.32 165.465 303.572Z" fill="#333333"/>
<path fill-rule="evenodd" clip-rule="evenodd" d="M55.885 341.334C54.4137 341.598 51.5277 342.379 49.4719 343.071C36.4673 347.446 26.0854 356.434 20.4649 368.185C17.3614 374.674 16.9438 376.887 17.0055 386.523C17.0511 393.703 17.2285 395.451 18.3309 399.585C20.7341 408.599 24.6101 415.517 30.9525 422.112C36.8628 428.256 43.0337 431.833 51.2425 433.868C57.7307 435.477 68.3006 435.356 74.9553 433.597C84.1661 431.162 91.877 426.778 98.3417 420.302C100.37 418.27 102.062 416.678 102.101 416.763C104.709 422.434 107.625 426.016 111.072 427.782C114.11 429.339 119.879 429.875 127.255 429.284C133.117 428.814 134.072 428.596 137.33 426.982C143.394 423.978 147.801 418.125 150.016 410.132C150.59 408.062 151.324 403.128 151.646 399.168C152.147 393.02 152.128 391.903 151.515 391.515C151.121 391.264 148.825 391.056 146.412 391.052L142.026 391.044V398.023C142.026 407.634 140.365 416.077 137.28 422.15C135.23 426.186 132.047 428.222 127.79 428.222C124.588 428.222 118.782 425.142 116.62 422.297C113.969 418.807 113.381 416.05 112.916 404.921C112.492 394.796 111.905 389.502 110.684 384.805C110.313 383.378 109.641 380.082 109.191 377.481C107.111 365.465 100.487 355.328 90.3922 348.712C82.1594 343.316 75.5859 341.281 65.578 341.031C61.718 340.934 57.3563 341.071 55.885 341.334ZM54.8002 342.559C45.3187 344.683 37.8709 348.765 30.5685 355.838C23.8121 362.383 19.357 370.351 18.1594 378.034C17.3428 383.274 17.8517 394.299 19.135 399.171C22.3117 411.232 29.3594 421.39 38.8534 427.59C52.4686 436.483 71.6803 436.41 87.7142 427.407C93.6235 424.089 100.962 416.882 103.51 411.894C110.545 398.125 111.008 379.368 104.642 366.073C102.298 361.177 97.7006 355.514 93.0896 351.842C88.8156 348.438 80.7773 344.34 75.8546 343.057C71.3118 341.872 59.1489 341.585 54.8002 342.559ZM58.5418 354.363C54.4006 354.973 53.7946 355.285 53.8216 356.789C53.8352 357.53 54.914 360.963 56.2193 364.417L58.592 370.697L61.0824 370.546C62.4519 370.462 64.6637 370.729 65.9971 371.138L68.4219 371.881L71.384 365.762C75.062 358.165 75.1362 357.173 72.1254 355.838C70.9018 355.295 68.2509 354.637 66.2352 354.374C62.1497 353.843 62.079 353.843 58.5418 354.363ZM34.6842 356.755C34.0611 357.552 34.0786 357.57 34.8737 356.945C35.7088 356.288 35.974 355.876 35.5614 355.876C35.4577 355.876 35.0626 356.271 34.6842 356.755ZM40.9644 364.329C38.0774 366.425 34.6636 370.427 32.8439 373.85C30.8212 377.653 30.764 379.182 32.6178 379.906C34.0235 380.455 45.6184 383.508 46.2972 383.508C46.5027 383.508 46.81 382.952 46.9804 382.271C47.1509 381.591 48.4372 379.885 49.8393 378.48L52.3884 375.925L51.066 373.217C48.7235 368.418 44.871 362.91 43.8569 362.91C43.3415 362.91 42.0397 363.548 40.9644 364.329ZM84.4984 363.789C83.9525 364.273 81.6476 367.002 79.3762 369.854L75.246 375.039L76.2712 376.134C77.4968 377.443 79.3371 381.367 79.3526 382.705C79.3632 383.6 79.6855 383.641 84.5019 383.362C90.8854 382.991 94.8748 382.159 95.2748 381.114C96.2553 378.553 92.4339 369.299 88.7419 365.296C86.3011 362.649 85.9321 362.518 84.4984 363.789ZM59.963 382.483C57.9518 383.712 56.8053 385.886 56.8053 388.469C56.8053 394.117 64.7629 396.511 68.5487 392.001C70.0756 390.183 70.2982 386.86 69.054 384.449C67.6108 381.651 62.9668 380.648 59.963 382.483ZM59.5123 384.212C58.0631 385.664 57.8079 386.269 57.8079 388.253C57.8079 391.14 59.2356 392.783 62.1757 393.281C66.737 394.053 70.1162 390.605 68.873 386.446C68.1391 383.992 66.0432 382.503 63.3202 382.503C61.5962 382.503 60.909 382.812 59.5123 384.212ZM34.4977 391.373C31.0202 392.11 31.2393 391.884 31.2393 394.744C31.2393 399.009 33.6776 405.032 37.2167 409.508C39.2951 412.136 40.1047 411.76 45.7508 405.545L50.8344 399.948L49.8263 398.873C48.6763 397.647 47.2807 394.008 47.2807 392.237C47.2807 391.046 47.2722 391.044 41.3905 391.103C38.1506 391.135 35.0491 391.256 34.4977 391.373ZM79.3637 392.082C79.3637 393.508 78.0177 396.034 76.2777 397.874L74.8084 399.427L77.2111 402.646C80.6079 407.197 84.518 411.141 85.6329 411.141C88.1494 411.141 93.5904 402.961 95.146 396.841C96.1581 392.858 95.8242 392.555 89.8142 392.005C78.3901 390.962 79.3637 390.955 79.3637 392.082ZM57.3252 407.216C55.2057 411.943 53.7976 416.024 53.7976 417.442C53.7976 419.379 56.7296 420.368 63.1392 420.594C70.2556 420.845 74.3507 419.865 74.3507 417.911C74.3507 417.229 73.124 413.787 71.6241 410.263C69.1277 404.395 68.8004 403.875 67.7391 404.088C65.9916 404.439 63.3107 404.38 61.0217 403.939L58.9719 403.544L57.3252 407.216Z" fill="#333333"/>
<path fill-rule="evenodd" clip-rule="evenodd" d="M393.131 1.48436C391.756 2.27959 374.599 14.4452 355.005 28.5196C335.411 42.5928 315.722 56.6634 311.254 59.7857C303.178 65.4284 258.24 97.662 226.563 120.534C215.358 128.623 210 133.257 210 134.857C210 136.312 228.349 155.33 257.783 184.38C284.063 210.318 326.543 252.326 352.184 277.73C409.312 334.333 427.704 351.989 429.558 352C431.573 352.014 453.098 335.693 518.136 284.846C525.011 279.472 540.761 267.269 553.137 257.73C611.524 212.725 611.898 212.407 610.75 208.797C610.294 207.357 605.019 201.558 599.029 195.909C593.038 190.26 574.075 171.839 556.887 154.971C524.806 123.489 489.143 88.5212 431.579 32.1087C413.537 14.4277 398.068 -0.0199536 397.204 2.06864e-05C396.339 0.0212434 394.506 0.689135 393.131 1.48436ZM338.754 46.283C308.16 68.286 281.701 87.2291 279.959 88.3789C264.788 98.3935 216.25 134.215 216.25 135.396C216.25 136.225 225.672 146.062 237.188 157.258C248.705 168.452 281.765 200.98 310.657 229.544C339.549 258.106 377.836 295.941 395.738 313.622C413.641 331.302 429.096 345.751 430.085 345.731C431.074 345.709 442.289 337.547 455.008 327.593C478.771 308.995 490.117 300.169 541.887 260.004C580.06 230.389 593.082 220.35 599.652 215.473C602.547 213.325 604.939 210.974 604.965 210.25C605.016 208.876 600.199 204.094 507.559 113.554C476.303 83.0058 438.998 46.4965 424.659 32.4208C410.319 18.3452 397.642 6.70515 396.484 6.5541C395.328 6.40179 369.349 24.2801 338.754 46.283ZM361.88 41.3007C344.692 53.7834 329.118 65.1787 327.269 66.6231C325.422 68.0675 321.484 70.9888 318.519 73.1148C313.425 76.7688 294.198 90.8183 252.189 121.584C241.564 129.366 233.751 135.946 233.751 137.114C233.751 138.229 277.21 182.542 330.325 235.588C404.477 309.642 427.595 332.036 429.894 332.036C431.806 332.036 441.047 325.852 455.51 314.895C505.884 276.733 517.786 267.69 538.136 252.118C549.824 243.175 566.56 230.449 575.325 223.836C584.382 217.005 591.263 210.93 591.263 209.765C591.263 207.602 578.73 195.067 511.9 130.384C489.22 108.432 460.25 80.3305 447.523 67.9352C403.724 25.2825 397.352 19.3114 395.244 18.9581C394.083 18.7634 379.068 28.818 361.88 41.3007ZM384.817 30.7804C366.437 44.3293 357.861 50.6037 329.379 71.3445C284.185 104.255 247.254 131.324 243.16 134.54L239.504 137.412L334.671 232.452L429.836 327.493L434.244 324.459C436.669 322.79 447.254 314.884 457.769 306.89C468.281 298.897 486.77 284.853 498.853 275.681C510.935 266.509 532.587 250.016 546.97 239.03C561.352 228.044 575.788 217.09 579.048 214.687C582.308 212.283 584.983 209.874 584.994 209.332C585.004 208.792 574.751 198.399 562.21 186.237C549.669 174.076 529.277 154.274 516.896 142.232C504.515 130.191 486.228 112.452 476.259 102.812C466.29 93.1715 446.602 74.0448 432.508 60.3062C400.317 28.9278 395.988 24.9305 394.2 24.9305C393.405 24.9305 389.182 27.5633 384.817 30.7804ZM386.634 33.6705C385.124 34.2859 382.964 36.5705 381.836 38.749C380.145 42.0148 380.023 43.6564 381.146 48.1057C381.893 51.0731 382.506 56.3051 382.506 59.7332C382.506 67.7317 384.084 71.744 389.094 76.4804L393.131 80.298L387.819 77.3531C382.328 74.3082 377.506 66.8316 377.506 61.3636C377.506 59.8643 376.943 58.6371 376.256 58.6371C374.132 58.6371 374.872 65.0639 377.657 70.809C380.5 76.6739 385.859 80.8511 395.006 84.3353C407.166 88.9669 412.557 95.5634 410.051 102.743C408.466 107.282 409.553 108.844 411.985 105.523C414.337 102.311 414.227 96.883 411.711 91.9693L409.664 87.9744L412.465 90.4687C417.775 95.2001 420.071 102.452 417.981 107.893C415.836 113.475 401.82 115.308 390.564 111.478C387.187 110.329 379.907 107.009 374.384 104.1C368.862 101.19 360.728 97.5933 356.308 96.1065C349.252 93.7333 347.611 93.5872 342.871 94.913C332.829 97.7206 325.708 109.12 326.525 121.079C327.134 129.972 333.554 143.785 339.867 149.782C354.296 163.49 372.811 163.25 400.007 149.003L410.632 143.438L405.632 147.802C401.149 151.716 396.101 154.468 389.694 156.491C387.194 157.28 386.714 159.771 389.069 159.73C391.913 159.68 401.479 154.812 407.706 150.248C412.293 146.885 413.508 145.357 412.532 144.182C411.004 142.345 411.276 142.09 421.882 135.428C426.783 132.35 428.555 131.642 426.994 133.385C422.881 137.98 425.789 137.728 433.792 132.796C440.144 128.879 442.668 128.039 448.247 127.987C452.187 127.949 454.822 127.402 454.566 126.675C454.325 125.988 450.247 125.481 445.504 125.549L436.883 125.672L444.383 123.888C453.122 121.81 463.11 123.318 469.216 127.637C473.408 130.603 478.742 141.272 478.719 146.649C478.696 152.531 474.585 160.129 466.926 168.448C457.967 178.182 452.508 186.764 452.508 191.116C452.508 195.393 458.399 201.478 464.476 203.481C471.953 205.945 479.349 203.93 499.575 193.918C516.896 185.344 519.196 184.533 526.451 184.43C535.324 184.304 540.738 186.448 544.902 191.735C549.698 197.826 547.805 204.156 538.549 212.98C531.38 219.815 529.432 220.695 515.536 223.383C509.029 224.641 502.316 226.58 500.618 227.691C497.39 229.803 492.824 238.004 490.132 246.521C485.096 262.461 467.965 265.743 457.986 252.681C454.542 248.175 454.363 247.287 453.945 232.636C453.51 217.489 453.457 217.252 449.57 212.823C446.772 209.635 442.959 207.361 436.39 204.958C425.519 200.983 422.762 197.943 421.355 188.38C419.945 178.813 418.17 175.144 413.873 172.925C407.962 169.873 404.477 170.594 396.024 176.62C383.656 185.438 376.691 188.444 368.596 188.458C354.881 188.481 346.086 181.804 330.055 159.195C315.049 138.033 309.528 133.541 298.529 133.541C290.139 133.541 285.026 137.75 282.484 146.754C280.584 153.48 282.469 160.752 288.366 169.443C293.91 177.61 300.166 182.222 319.951 192.721C337.847 202.216 340.841 204.732 346.196 214.766C351.275 224.282 355.014 227.17 362.252 227.17C368.107 227.17 371.738 225.484 384.819 216.688C396.459 208.86 408.142 211.361 413.776 222.883C416.546 228.55 416.806 234.103 415.023 249.583C414.356 255.387 414.218 262.409 414.721 265.188C415.523 269.636 415.737 268.897 416.506 259.005C416.986 252.825 417.748 243.45 418.201 238.17C419.529 222.67 414.25 212.918 402.828 209.769C395.825 207.838 389.164 209.522 380.571 215.397C362.025 228.077 357.221 227.644 349.589 212.6C345.046 203.648 337.397 197.346 320.468 188.608C295.468 175.703 286.253 165.278 286.253 149.902C286.253 143.349 286.646 142.151 289.547 139.874C293.46 136.799 302.173 136.395 307.253 139.052C311.44 141.242 319.79 149.77 317.749 149.77C316.926 149.77 316.254 149.297 316.254 148.718C316.254 147.083 307.723 142.893 306.626 143.989C306.088 144.524 306.632 145.513 307.833 146.185C312.705 148.907 316.676 153.533 325.315 166.547C333.821 179.362 337.504 183.307 337.504 179.604C337.504 178.733 336.489 176.86 335.248 175.442C334.008 174.025 331.462 170.337 329.592 167.247C327.138 163.194 326.983 162.663 329.035 165.342C334.724 172.767 345.74 183.866 350.284 186.752C365.312 196.295 374.126 195.5 392.488 182.941C408.006 172.327 415.101 173.391 416.872 186.598C418.662 199.937 421.064 203.365 431.258 207.126C449.523 213.865 450.425 215.136 451.258 235.327C451.845 249.517 452.102 250.746 455.394 255.056C462.299 264.097 473.128 266.906 482.558 262.101C488.256 259.198 492.586 253.087 495.615 243.673C499.514 231.556 504.09 228.252 519.373 226.518C544.768 223.635 560.506 196.632 543.739 184.709C533.105 177.146 518.148 179.101 499.164 190.533C492.854 194.333 485.541 198.206 482.913 199.143C472.154 202.974 459.359 199.691 456.299 192.312C454.083 186.971 455.812 183.922 466.373 174.549C477.526 164.651 481.844 156.696 481.863 146.025C481.874 138.944 481.374 137.189 477.941 132.245C475.528 128.774 471.537 125.239 467.634 123.118C462.205 120.167 459.826 119.659 451.546 119.676C439.343 119.704 436.469 120.902 415.623 134.661C380.505 157.837 359.753 161.775 344.303 148.193C341.181 145.449 337.019 140.025 335.057 136.141C328.262 122.699 328.895 111.323 336.912 102.834C341.162 98.3336 341.406 98.2525 348.624 98.9066C354.238 99.4147 359.748 101.393 371.749 107.212C394.449 118.217 405.347 120.235 415.243 115.268C422.445 111.654 424.621 102.787 420.456 94.0229C417.98 88.8096 413.333 85.1393 400.459 78.2269C389.897 72.5555 384.624 66.6381 385.261 61.1764C385.6 58.2801 386.25 57.958 392.95 57.3638C398.76 56.8469 400.783 56.0792 402.763 53.6373C409.941 44.7849 397.417 29.2786 386.634 33.6705ZM386.052 41.7326C384.365 45.4291 387.064 50.4302 391.943 52.6498C398.332 55.5573 402.762 46.4079 397.507 41.1596C393.886 37.5443 387.824 37.8476 386.052 41.7326ZM333.754 90.1641C327.389 93.556 321.601 101.722 320.423 108.975C319.294 115.922 321.753 114.5 324.183 106.801C326.39 99.8055 332.178 93.355 338.349 91.0118C346.646 87.8621 359.394 90.7034 377.175 99.6669C385.142 103.684 387.506 104.345 387.506 102.554C387.506 101.99 381.185 98.4784 373.458 94.752C360.601 88.5487 358.561 87.9407 349.395 87.5712C340.75 87.2229 338.611 87.5774 333.754 90.1641ZM477.004 124.607C476.643 125.192 478.062 127.299 480.156 129.293C484.995 133.898 487.51 139.865 487.51 146.743C487.51 153.047 485.965 156.961 480.343 164.899C476.375 170.503 474.974 175.986 477.509 175.986C478.197 175.986 478.759 175.149 478.759 174.126C478.759 173.102 481.291 168.573 484.385 164.06C489.607 156.441 490.01 155.283 490.01 147.877C490.01 139.725 488.798 135.553 484.671 129.481C482.024 125.587 477.987 123.021 477.004 124.607ZM284.266 130.908C279.249 133.964 275.386 138.943 274.338 143.702C273.157 149.077 274.725 157.891 277.464 161.264C281.085 165.724 281.838 162.999 278.745 156.621C273.97 146.769 277.144 137.914 287.285 132.797C290.138 131.357 292.103 129.813 291.654 129.364C290.305 128.018 288.336 128.429 284.266 130.908ZM345.005 142.216C345.005 144.412 353.13 149.613 359.014 151.184C365.445 152.902 373.787 151.625 374.721 148.779C375.118 147.567 374.364 147.41 371.691 148.155C365.152 149.975 358.764 148.9 352.311 144.895C345.483 140.655 345.005 140.479 345.005 142.216ZM456.656 171.065C450.721 177.29 446.532 184.494 446.351 188.796C446.201 192.363 451.082 201.394 454.508 203.885C459.245 207.332 459.767 205.237 455.322 200.623C447.678 192.69 448.328 184.847 457.467 174.738C462.8 168.838 465.154 164.751 463.219 164.751C462.923 164.751 459.969 167.592 456.656 171.065ZM493.135 183.596C483.847 188.726 477.861 191.249 474.689 191.37C468.363 191.611 469.543 194.114 475.925 193.991C479.623 193.919 484.25 192.037 493.312 186.912C500.104 183.071 507.207 179.542 509.098 179.067C513.849 177.876 514.649 175.985 510.397 175.994C508.453 175.999 500.749 179.392 493.135 183.596ZM391.293 187.108C381.305 195.238 373.782 198.107 368.103 195.951C363.662 194.264 361.332 195.853 365.149 197.967C372.413 201.988 382.867 198.64 394.334 188.619C398.355 185.103 402.595 182.228 403.758 182.228C406.902 182.228 410.006 186.304 410.012 190.441C410.017 194.559 414.465 202.684 416.146 201.647C416.75 201.274 416.178 198.881 414.876 196.328C413.573 193.776 412.507 190.227 412.507 188.441C412.507 186.656 411.359 183.966 409.958 182.464C405.656 177.851 401.348 178.924 391.293 187.108ZM322.669 200.748C322.921 201.466 325.098 203.369 327.504 204.978C329.91 206.587 334.569 211.808 337.858 216.579C344.802 226.656 345.926 227.915 347.015 226.827C348.08 225.764 335.431 207.294 331.34 203.939C327.572 200.848 321.978 198.789 322.669 200.748ZM440.438 220.925C443.723 224.823 443.807 225.319 443.474 238.849C443.179 250.902 443.467 253.329 445.633 257C449.261 263.148 456.09 268.137 462.196 269.098C468.193 270.043 469.902 267.651 464.071 266.471C458.437 265.333 452.257 261.734 449.485 257.976C447.212 254.896 446.867 252.563 446.753 239.481C446.642 226.577 446.278 224.047 444.121 221.158C442.744 219.316 440.592 217.606 439.338 217.361C437.459 216.992 437.652 217.618 440.438 220.925ZM498.138 219.15C490.058 223.358 485.765 229.107 483.173 239.189C481.211 246.821 476.873 252.138 472.608 252.138C471.364 252.138 468.864 250.974 467.053 249.55C463.879 247.059 463.759 247.051 463.759 249.351C463.759 251.877 468.388 254.635 472.63 254.635C476.502 254.635 481.883 251.387 483.333 248.175C484.053 246.578 485.425 242.182 486.38 238.406C487.671 233.303 489.475 230.178 493.406 226.234C496.315 223.315 499.765 220.928 501.074 220.928C502.383 220.928 504.154 220.086 505.01 219.056C506.299 217.504 506.165 217.185 504.225 217.191C502.939 217.196 500.199 218.077 498.138 219.15ZM421.46 252.349C421.925 262.944 422.342 264.626 425.679 269.332C427.716 272.205 430.086 274.568 430.945 274.583C433.099 274.619 432.903 272.747 430.55 270.796C426.554 267.484 424.584 261.495 424.212 251.528C423.984 245.385 423.285 241.37 422.392 241.073C421.341 240.723 421.086 243.804 421.46 252.349ZM416.297 271.606C416.275 272.357 419.07 276.182 422.507 280.106C428.486 286.929 428.758 287.557 428.758 294.566C428.758 300.994 429.161 302.21 432.051 304.48C434.213 306.179 437.175 307.068 440.672 307.068C445.206 307.068 446.577 306.41 449.878 302.655C454.268 297.662 454.548 295.986 451.862 290.797C449.536 286.304 445.044 283.874 436.867 282.68C428.974 281.529 422.262 278.175 418.934 273.717C417.505 271.804 416.318 270.854 416.297 271.606ZM435.287 290.286C429.604 294.259 433.362 302.074 440.954 302.074C448.546 302.074 451.225 295.454 445.464 290.93C441.529 287.837 439.013 287.678 435.287 290.286Z" fill="black"/>
<path fill-rule="evenodd" clip-rule="evenodd" d="M250.429 320.398C249.445 320.59 248.062 321.022 247.356 321.357C246.65 321.692 245.957 321.966 245.815 321.966C245.093 321.966 240.847 325.952 239.653 327.751C238.148 330.019 237.688 331.007 236.76 333.957C235.389 338.318 235.877 342.99 238.188 347.65C238.85 348.984 242.389 352.704 245.06 354.873C246.005 355.641 246.449 356.497 246.947 358.511C247.761 361.797 247.786 367.436 247.004 371.126C246.676 372.671 246.405 374.592 246.401 375.395C246.398 376.197 246.125 377.371 245.795 378.003C245.465 378.635 245.194 379.553 245.193 380.042C245.191 380.531 244.943 381.524 244.64 382.249C244.338 382.974 243.874 384.199 243.609 384.972C243.345 385.744 242.569 388.001 241.887 389.988C240.976 392.635 240.638 394.359 240.62 396.443C240.592 399.695 241.177 400.937 243.268 402.061C244.987 402.985 253.918 403.335 257.445 402.616C258.765 402.347 260.839 401.985 262.053 401.811C267.645 401.011 277.048 397.652 281.125 394.998C281.787 394.566 282.736 394.035 283.233 393.816C283.729 393.598 284.136 393.234 284.136 393.008C284.136 392.781 284.346 392.596 284.603 392.596C285.372 392.596 287.655 389.758 287.91 388.486C288.04 387.835 288.028 386.827 287.883 386.249C287.54 384.883 286.167 382.564 285.702 382.564C285.504 382.564 285.341 382.293 285.341 381.962C285.341 381.631 285.07 381.36 284.738 381.36C284.407 381.36 284.136 381.089 284.136 380.758C284.136 380.427 283.953 380.156 283.729 380.156C283.272 380.156 279.755 376.487 277.573 373.735C276.786 372.742 275.863 371.613 275.522 371.227C275.181 370.84 274.902 370.359 274.902 370.156C274.902 369.954 274.759 369.729 274.586 369.655C274.133 369.463 270.775 363.57 269.364 360.492C266.467 354.17 265.835 351.795 266.5 349.731C266.762 348.917 267.148 348.034 267.359 347.769C268.348 346.521 269.334 344.008 269.939 341.192C270.554 338.334 270.555 337.842 269.951 334.551C269.592 332.595 268.932 330.273 268.483 329.39C267.598 327.651 265.117 324.484 263.995 323.663C263.611 323.382 263.03 322.885 262.704 322.559C262.378 322.233 261.962 321.965 261.781 321.964C261.6 321.962 260.95 321.7 260.337 321.38C259.037 320.702 255.222 319.94 253.447 320.004C252.771 320.028 251.412 320.205 250.429 320.398ZM250.209 323.487C248.884 323.857 247.561 324.389 247.27 324.668C246.978 324.948 246.519 325.177 246.25 325.177C245.6 325.177 242.251 328.677 241.452 330.193C239.61 333.686 239.423 334.383 240.12 335.152C240.513 335.587 240.774 336.571 240.774 337.62C240.774 341.325 243.61 347.03 246.026 348.186C249.353 349.776 250.674 351.285 249.02 351.603C248.166 351.767 244.788 350.17 244.267 349.355C244.09 349.08 243.638 348.861 243.263 348.869C242.236 348.892 245.374 351.451 247.911 352.66C254.872 355.977 264.161 350.917 266.635 342.46C267.856 338.288 267.225 332.651 265.15 329.19C264.244 327.678 261.813 325.177 261.25 325.177C261.061 325.177 260.667 324.949 260.375 324.671C259.703 324.031 256.322 323.071 254.224 322.925C253.341 322.863 251.534 323.116 250.209 323.487ZM240.774 346.222C240.774 346.566 240.954 346.847 241.175 346.847C241.396 346.847 241.577 346.677 241.577 346.47C241.577 346.262 241.396 345.98 241.175 345.844C240.954 345.708 240.774 345.878 240.774 346.222ZM242.179 348.051C242.315 348.272 242.506 348.452 242.604 348.452C242.702 348.452 242.781 348.272 242.781 348.051C242.781 347.83 242.59 347.65 242.356 347.65C242.122 347.65 242.042 347.83 242.179 348.051ZM254.324 349.933C253.938 350.034 253.622 350.487 253.622 350.94C253.622 351.648 253.797 351.728 254.876 351.512C255.567 351.374 256.289 351.262 256.482 351.262C256.676 351.262 256.834 350.9 256.834 350.459C256.834 349.654 256.035 349.486 254.324 349.933ZM259.95 354.656C258.462 355.387 256.023 356.197 254.53 356.456C250.194 357.209 249.942 357.285 250.117 357.798C250.209 358.065 250.673 358.228 251.15 358.159C251.939 358.045 252.016 358.213 252.016 360.051C252.016 361.721 252.223 362.306 253.22 363.44C254.388 364.77 254.425 364.935 254.425 368.853C254.425 371.076 254.255 373.31 254.047 373.816C253.84 374.323 253.555 375.612 253.415 376.681C253.178 378.486 253.092 378.606 252.196 378.38C251.382 378.177 251.195 378.312 251.001 379.248C250.723 380.589 249.689 384.317 249.135 385.975C248.914 386.637 248.596 387.721 248.429 388.383C248.262 389.045 247.72 390.377 247.226 391.344C246.399 392.958 246.273 393.048 245.68 392.455C245.091 391.867 245.09 391.692 245.661 390.496C246.006 389.773 246.419 388.584 246.58 387.853C246.74 387.121 247.125 386.038 247.434 385.446C248.087 384.194 248.181 382.564 247.599 382.564C247.378 382.564 247.198 382.943 247.198 383.406C247.198 383.869 246.953 384.817 246.654 385.513C244.414 390.726 243.613 393.296 243.305 396.252C243.132 397.915 243.228 398.192 244.252 399.004C245.361 399.882 245.579 399.9 252.618 399.703C256.593 399.592 260.477 399.314 261.25 399.087C262.023 398.859 263.469 398.493 264.462 398.274C267.193 397.671 269.789 396.98 270.686 396.617C271.127 396.438 272.482 395.894 273.697 395.41C275.874 394.54 281.452 391.639 282.297 390.936C282.536 390.738 283.109 390.262 283.571 389.88C286.062 387.82 285.573 386.027 281.46 382.133C276.931 377.845 270.703 369.94 269.468 366.913C269.333 366.582 269.057 366.04 268.855 365.709C268.654 365.378 267.942 363.933 267.274 362.498C266.606 361.064 265.79 359.379 265.462 358.754C265.133 358.129 264.864 357.271 264.864 356.847C264.864 356.424 264.691 356.077 264.48 356.077C264.27 356.077 263.979 355.445 263.834 354.673C263.689 353.9 263.364 353.282 263.113 353.298C262.861 353.315 261.438 353.926 259.95 354.656Z" fill="#333333"/>
</svg>
